<?xml version="1.0" encoding="utf-8"?>
<!-- Generator: Adobe Illustrator 25.4.1, SVG Export Plug-In . SVG Version: 6.00 Build 0)  -->
<svg version="1.1" id="Layer_1" xmlns="http://www.w3.org/2000/svg" xmlns:xlink="http://www.w3.org/1999/xlink" x="0px" y="0px"
	 viewBox="0 0 595.28 841.89" style="enable-background:new 0 0 595.28 841.89;" xml:space="preserve">
<style type="text/css">
	.st0{fill:#FFFFFF;}
	.st1{fill:#2E3667;}
	.st2{fill:#D79686;}
	.st3{fill:#F4F2EF;}
	.st4{fill:#2A1E1A;}
	.st5{fill:#2A2622;}
	.st6{fill:#120D0E;}
	.st7{fill:#1D1A2C;}
	.st8{fill:#ECE7E3;}
	.st9{fill:#121739;}
	.st10{fill:#80343A;}
	.st11{fill:#83292A;}
	.st12{fill:#8A2224;}
	.st13{fill:#BD9597;}
	.st14{fill:#996052;}
	.st15{fill:#AE2029;}
</style>
<g>
	<g>
		<path class="st0" d="M-31-17.59c219.28,0,438.56,0,657.84,0c0,263.36,0,526.72,0,790.08c-219.28,0-438.56,0-657.84,0
			C-31,509.13-31,245.77-31-17.59z M186.85,445.49c-4.91,1.67-9.8,3.39-14.41,5.77c-2.91,1.5-5.62,3.34-7.7,5.96
			c-3.49,4.41-4.38,9.45-3.67,14.89c-0.41,1.22-0.51,2.49-0.61,3.77c-0.61,8,0.16,15.93,1.21,23.85c0.56,4.27,1.29,8.51,1.59,12.81
			c-1.29-0.7-1.12-2.07-1.31-3.17c-0.59-3.36-1.1-6.74-1.62-10.11c-0.63-4.05-0.89-8.07-0.83-12.13c0.01-0.48-0.02-0.96,0.01-1.44
			c0.08-1.15-0.24-2.16-1.37-2.53c-1.21-0.39-1.12-1.21-0.94-2.09c0.51-2.41,1.08-4.8,1.59-7.21c0.43-2.05,0.81-4.12,1.23-6.3
			c-0.62,0.2-0.73,0.53-0.83,0.82c-1.33,4.09-2.65,8.18-3.95,12.27c-0.8,2.51-1.63,5-2.34,7.54c-2.59,9.27-5.14,18.55-7.23,27.95
			c-1.35,6.05-2.77,12.09-3.86,18.19c-1.11,6.25-2.18,12.51-3.1,18.8c-0.78,5.34-1.43,10.69-2.21,16.03
			c-0.77,5.26-0.57,10.63-1.9,15.83c-0.23,0.9,0.03,1.77,0.65,2.46c0.33,0.36,0.69,0.66,0.73,1.18c-2.45,3.87-3.2,7.99-1.83,12.42
			c-0.7,0.91-0.7,1.92-0.4,2.97c-0.41,4.06-1.41,8-2.52,11.92c-3.89,13.7-10.53,25.8-20.65,35.93c-4.03,4.03-8.41,7.58-13.09,10.8
			c-5.18,3.56-9.76,7.71-12.67,13.45c-1.47,2.9-2,6.03-2.56,9.18c-2.87-0.71-5.15,0.26-7.07,2.41c-1.17,1.31-2.35,2.62-3.64,3.81
			c-1.84,1.7-3.99,2.27-6.43,1.39c-0.45-0.16-0.92-0.28-1.38-0.4c-5.61-1.53-10.23,0.01-13.88,4.5c-1.68,2.06-2.97,4.35-4.09,6.75
			c-2.14,4.6-5,8.72-8.33,12.53c-2.74,3.14-5.75,6-8.83,8.79c-3.92,3.55-7.47,7.45-10.64,11.68c-7.46,9.95-12.55,21.1-16.65,32.76
			c-0.07,0.2-0.01,0.46-0.01,0.9c0.8,0,1.57,0.01,2.35,0c3.76-0.03,7.51-0.1,11.27-0.1c29.57-0.01,59.14,0,88.71-0.01
			c1.03,0,2.07-0.1,3.1-0.16c0.59,0.6,1.35,0.34,2.03,0.35c6.34,0.02,12.69,0.01,19.03,0.01c0.71,0,1.43,0.07,2.12-0.2
			c0.88,0.04,1.75,0.1,2.63,0.1c35.71,0.01,71.41,0.01,107.12,0c0.79,0,1.6,0.12,2.38-0.14c0.78,0.27,1.59,0.14,2.38,0.14
			c37.9,0.01,75.79,0.01,113.69,0c0.8,0,1.59-0.07,2.39-0.1c0.87,0.04,1.75,0.12,2.62,0.11c11.19-0.03,22.38-0.1,33.57-0.1
			c52.35-0.01,104.7,0,157.05-0.02c1.19,0,2.39,0.19,3.58-0.1c0.84,0.36,1.73,0.19,2.6,0.19c10.05,0.01,20.1,0.03,30.15-0.01
			c1.48-0.01,3.38,0.71,4.35-0.39c0.83-0.95,0.19-2.76,0.11-4.18c-0.31-5.49-0.12-11.02-1.28-16.44c-1.04-4.81-2.7-9.32-6.14-12.99
			c-3.47-7.97-6.94-15.94-10.42-23.91c0.24-4.47,1.04-8.88,1.49-13.33c0.44-4.32-0.14-8.43-2.3-12.28
			c-1.83-3.28-3.34-6.72-4.74-10.21c-4.52-11.24-7.18-23-9.56-34.83c-1.84-9.16-3.55-18.34-5.68-27.44
			c-2.01-8.57-4.99-16.83-7.77-25.16c-4.74-14.24-8.92-28.67-13.92-42.82c-2.87-8.13-5.88-16.21-9.62-24
			c-0.02-1.21-0.4-2.35-0.71-3.5c-1.95-7.2-5.84-13.43-9.78-19.64c-0.23-0.36-0.52-0.59-0.98-0.5c0.17-0.91-0.33-1.54-0.96-2.06
			c-1.55-1.29-2.72-2.93-3.92-4.51c-6.24-8.19-11.98-16.7-16.51-26c-1.74-3.58-3.78-7.02-6.01-10.33
			c-3.05-4.52-6.79-8.44-10.72-12.2c-2.37-2.27-4.95-4.26-7.67-6.07c-5.76-3.82-12.03-6.54-18.67-8.45
			c-1.37-0.39-2.72-0.93-4.19-0.82c-0.62-0.18-1.24-0.36-1.86-0.54c-0.04-0.8-0.68-1.02-1.26-1.27c-5.27-2.26-10.56-4.48-15.82-6.76
			c-8.99-3.9-17.96-7.86-26.95-11.76c-9.28-4.03-18.58-8.02-27.87-12.02c-0.37-0.16-0.82-0.58-1.18,0.06
			c0.24,0.63,0.88,0.68,1.33,0.97c1.63,1.04,1.55,1.86-0.32,3.02c-1.08-1.64-1.69-3.59-3.24-4.93c-1.85-1.88-4.02-3.36-6.1-4.95
			c-0.59-3.06-1.13-6.12-0.91-9.27c0.35-4.96,1.87-9.56,4.27-13.86c3.72-6.66,8.24-12.75,13.59-18.21
			c4.21-4.29,8.77-8.19,13.43-11.96c7.41-6,14.5-12.32,20.93-19.38c6.25-6.87,12.34-13.85,17.28-21.76
			c3.92-6.26,7.11-12.85,8.98-20.04c3.01-1.63,3.68-2.85,3.31-6.11c-0.07-0.63-0.24-1.25-0.36-1.87c1.74-3.94,2.89-8.09,4.23-12.17
			c4.33-3.85,9.5-6.06,14.97-7.67c4.74-1.39,9.51-2.66,14.15-4.36c8.89-3.27,17.28-7.45,24.41-13.81
			c5.73-5.11,10.31-11.07,13.25-18.21c0.12-0.19,0.31-0.37,0.37-0.59c3.36-12.41,5.43-24.95,3.88-37.86
			c-1.49-12.38-6.26-23.33-14.31-32.84c-3.73-5.8-5.82-12.19-6.94-18.95c-0.9-5.43-1.75-10.87-2.81-16.26
			c-0.88-4.46-2.12-8.84-4.52-12.78c-2.87-6.7-6.62-12.88-11.21-18.53c-6.78-8.35-15.15-14.49-25.42-17.91
			c-0.74-0.97-1.88-0.79-2.89-0.99c-3.89-2.93-7.79-5.83-11.65-8.78c-7.8-5.97-15.44-12.16-23.68-17.55
			c-3.47-2.27-6.95-4.54-10.74-6.25c-1.7-1.32-3.84-1.4-5.78-2.02c-5.91-1.88-11.76-3.97-17.81-5.37
			c-6.33-1.47-12.71-2.1-19.15-0.71c-3.46-0.12-6.5-1.38-9.22-3.46c-1.52-1.16-3.04-2.31-4.52-3.51c-3.13-2.55-6.75-3.79-10.73-4.1
			c-3.89-1.29-7.96-1.53-11.99-1.78c-12.68-0.81-24.97,1.1-36.87,5.57c-8.94,3.36-17.2,7.98-25.06,13.36
			c-5.02,0.87-10.07,1.65-15.07,2.64c-7.92,1.58-15.59,3.89-22.41,8.45c-0.37,0.14-0.76,0.25-1.11,0.42
			c-16.29,7.7-29.03,19.26-37.94,34.97c-0.55,0.97-1.06,1.94-1.93,2.71c-7.04,6.21-11.3,13.95-12.62,23.27
			c-0.17,1.23-0.66,2.26-1.32,3.28c-3.81,5.82-7.29,11.82-10.03,18.23c-4.44,10.38-6.65,21.12-5.39,32.45
			c-0.69,5.99,1.27,11.16,4.93,15.79c1.99,2.52,4.35,4.67,6.81,6.72c2.22,1.85,4.25,3.88,5.78,6.35c2.79,4.47,2.86,9,0.25,13.6
			c-0.95,1.68-2.3,3.05-3.37,4.63c-0.75,0.49-1.62,0.65-2.46,0.87c-1.55,0.41-3.03,0.97-4.44,1.73c-3.43,1.88-5.29,4.74-5.44,8.67
			c-0.07,1.68,0.02,3.38,0.4,5c1.87,7.82,3.5,15.71,6.76,23.13c0.77,1.75,1.41,3.55,2.04,5.36c1.49,4.24,2.43,8.59,2.28,13.12
			c-0.34,0.54-0.67,1.09-1.03,1.61c-3.13,4.66-3.86,9.74-2.5,15.11c1.31,5.16,3.78,9.8,6.62,14.26c0.09,3.67,0.3,7.34,0.43,11
			c0.26,7.5,0.63,14.99,0.94,22.48c0.42,9.97,1.24,19.89,2.58,29.77c0.48,3.54,0.9,7.12,1.93,10.57c-0.15,1.86,0.61,3.57,0.94,5.34
			c1,5.3,2.2,10.56,4.22,15.59c0.92,2.27,1.79,4.57,3.39,6.49c2.35,6.45,4.8,12.87,7.97,18.97c4.74,9.15,12.16,14.38,22.59,15.05
			c-0.38,1.22-0.78,2.42-1.12,3.65c-0.97,3.44-2.37,6.75-3.07,10.27c-1.16,0.1-2.09,0.77-3.03,1.32
			C201.09,437.14,193.98,441.32,186.85,445.49z"/>
		<path class="st1" d="M451.77,55.76c10.27,3.41,18.64,9.55,25.42,17.91c4.59,5.65,8.34,11.83,11.21,18.53
			c-8.29,0.03-16.58,0.42-24.88-0.28c-6.46-0.54-12.87,0.18-19.2,1.67c-4.97,1.18-9.82,2.73-14.63,4.41
			c-7.15,2.49-14.46,4.47-21.66,6.79c-4.24,1.37-7.36,4.27-8.38,8.77c-0.97,4.27,1.18,8.7,6.38,8.97c4.61,0.23,9.23,0.17,13.86,0.43
			c4.2,0.24,8.44-0.17,12.65-0.25c9.95-0.19,19.94-0.83,29.86,0.81c3.78,0.62,7.49,1.48,11.09,2.77c4.52,1.62,8.78,3.83,13.02,6.04
			c4.09,2.12,7.83,4.67,9.37,9.37c0.23,0.69,0.7,1.2,1.42,0.93c1.84-0.69,3.86-1,5.36-2.44c8.05,9.52,12.83,20.47,14.31,32.84
			c1.55,12.91-0.52,25.45-3.88,37.86c-0.06,0.21-0.24,0.39-0.37,0.59c-0.56-0.78-1.39-0.58-2.16-0.59
			c-2.51-0.03-5.02-0.03-7.53-0.04c-3.52-4.2-7.75-7.47-12.41-10.36c-8.45-5.25-17.39-9.39-26.76-12.64
			c-7.07-2.45-14.31-4.33-21.61-5.98c-9.3-2.1-18.7-3.64-28.11-5.07c-3.76-0.57-7.51-1.29-11.28-1.78
			c-5.12-0.66-10.17-1.94-15.4-1.57c-2.34,0.16-4.38-0.68-6.2-2.1c-0.51-0.4-0.98-0.85-1.68-0.78c-2.8,0.27-5.55-0.47-8.34-0.49
			c-2.47-0.01-4.94-0.01-7.37,0.53c-2,0.04-3.96-0.4-5.93-0.47c-3.9-0.13-7.75-0.75-11.61-1.15c-4.88-0.5-9.71-1.49-14.57-2.24
			c-6.82-1.05-13.59-2.4-20.36-3.7c-6-1.15-11.99-2.36-17.98-3.54c-4.82-0.95-9.64-1.91-14.47-2.87c-1.97-2.41-4.71-3.2-7.62-3.32
			c-3.51-0.14-7.03-0.12-10.54,0.01c-3.11,0.11-5.8-0.85-8.21-2.7c-0.61-0.47-1.2-0.71-1.96-0.71c-2.54-0.01-5.07-0.14-7.62-0.39
			c-3.79-0.36-7.62-0.06-11.45-0.49c-3.54-0.4-7.14-0.05-10.73-0.47c-3.7-0.43-7.46-0.06-11.2-0.49c-3.62-0.41-7.3-0.05-10.97-0.48
			c-3.62-0.42-7.3-0.05-10.97-0.48c-3.54-0.41-7.14-0.18-10.73-0.47c-4.36-0.35-8.78-0.07-13.17-0.06
			c-3.33-0.02-6.65-0.03-9.98-0.05c-1.26-11.32,0.95-22.07,5.39-32.45c2.74-6.41,6.22-12.41,10.03-18.23
			c0.67-1.02,1.15-2.05,1.32-3.28c1.32-9.31,5.57-17.06,12.62-23.27c0.87-0.77,1.38-1.74,1.93-2.71
			c8.92-15.71,21.65-27.27,37.94-34.97c0.36-0.17,0.74-0.28,1.11-0.42c0.11,0.87-0.41,1.53-0.77,2.22
			c-2.76,5.22-5.52,10.44-8.31,15.64c-1.51,2.81-3.05,5.6-4.64,8.37c-1.75,3.04-2.98,6.18-2.51,9.78c0.75,5.75,1.57,7.08,6.88,8.2
			c1.72,0.37,3.14-0.11,4.08-1.72c0.64-1.1,1.45-2.09,2.21-3.11c1.66-2.22,3.56-4.36,3.89-7.28c0.18-1.58,0.9-2.83,1.78-4.08
			c6.04-8.64,12.74-16.73,20.29-24.1c2.23-2.18,4.41-4.4,6.7-6.52c2.22-2.06,4.53-4.01,6.81-5.99c0.77-0.67,1.27-1.43,1.07-2.5
			c7.86-5.38,16.12-9.99,25.06-13.36c11.9-4.48,24.19-6.39,36.87-5.57c4.03,0.26,8.1,0.49,11.99,1.78c-0.45,0.64-1.13,0.48-1.75,0.5
			c-2.55,0.06-5.08,0.15-7.63,0.38c-4.33,0.39-8.5,1.37-12.56,2.73c-10.33,3.47-18.93,9.74-26.82,17.09c-2.77,2.58-5,5.54-6.93,8.8
			c-3.47,5.85-6.53,11.86-8.67,18.33c-1.43,4.34-2.37,8.77-2.74,13.28c-0.25,3.15-0.4,6.37,0.33,9.54c0.22,0.95,0.49,1.36,1.5,1.41
			c3.19,0.18,6.2-0.36,8.99-1.92c5.31-2.97,9.94-6.88,14.49-10.86c4.45-3.89,8.06-8.63,12.3-12.75c0.11-0.11,0.23-0.23,0.32-0.36
			c3.26-4.31,7.53-7.52,11.73-10.8c3.88-3.03,8.27-5.12,12.99-6.44c1.68-0.47,3.1-1.19,4.2-2.54c1.09-1.33,2.52-2.22,4.09-2.84
			c1.85-0.73,3.67-1.51,5.61-2.02c4.77-1.25,9.26-3.05,12.42-7.15c0.53-0.69,1.22-1.26,1.85-1.88c0.4-0.4,0.76-0.83,0.74-1.44
			c6.44-1.4,12.82-0.76,19.15,0.71c6.05,1.4,11.9,3.48,17.81,5.37c1.94,0.62,4.08,0.7,5.78,2.02c-0.14,0.19-0.42,0.42-0.39,0.55
			c0.86,2.93-0.55,4.83-2.81,6.4c-0.77,0.54-1.55,1.13-1.7,2.18c-0.54,0.13-1.1,0.21-1.62,0.39c-2.64,0.91-5.25,1.89-7.91,2.75
			c-1.59,0.51-3.19,0.96-4.73,1.64c-4.07,1.79-7.51,4.5-10.9,7.28c-2.65,2.17-5.15,4.57-8.12,6.28c-2.81,1.61-5.29,3.55-7.42,5.96
			c-0.74,0.83-1.39,1.75-2.15,2.56c-2.62,2.8-5.31,5.52-7.94,8.31c-3.39,3.6-6.61,7.37-10.18,10.81c-1.22,1.17-2.2,2.53-2.78,4.14
			c-1.13,3.15,0.75,7.06,3.94,8.13c3.8,1.27,7.7,1.17,11.58,0.51c3-0.52,5.83-1.63,8.53-3.04c3.97-2.07,7.66-4.59,11.43-6.98
			c3.44-2.19,7.02-4.11,10.81-5.63c4.14-1.66,8.24-3.44,12.36-5.17c4.71-1.97,9.38-4.02,14.18-5.75c6.46-2.32,13.01-4.31,19.84-5.1
			c2.67-0.31,5.44-0.77,8.08-0.47c3.92,0.45,7.81,0.3,11.71,0.32C448.66,58.24,450.61,57.72,451.77,55.76z"/>
		<path class="st2" d="M176.35,356.34c-1.03-3.45-1.45-7.02-1.93-10.57c-1.34-9.88-2.16-19.8-2.58-29.77
			c-0.31-7.49-0.68-14.98-0.94-22.48c-0.13-3.67-0.34-7.33-0.43-11c0.02-0.8-0.03-1.61,0.06-2.4c0.47-3.98,1.82-6.16,5.32-7.51
			c1.38-0.53,2.91-0.69,4.43-0.8c2.97-0.2,5.85,0.58,8.81,0.54c7.59-0.1,15.19-0.02,22.78-0.02c-0.5,3.71-1.8,7.25-2.17,11.01
			c-0.45,4.74,0.55,8.85,3.96,12.25c2.48,2.48,5.58,4.24,8.04,6.78c0.74,0.77,1.84,1.22,2.88,1.67c4.12,1.77,8.5,2.06,12.86,2.28
			c3.68,0.18,7.3,0.51,10.84,1.57c2.24,0.67,5.11-0.95,5.67-3.14c0.68-2.65-0.48-4.43-3.4-4.96c-1.48-0.27-2.99-0.45-4.48-0.68
			c-6.52-1-13.01-2.17-19.52-3.27c-0.65-0.11-1.26-0.31-1.75-0.73c-4.28-3.67-7.34-9.37-6.01-15.75c0.93-4.45,2.8-8.47,5.25-12.25
			c1.65-2.55,3.49-4.98,5.03-7.59c1.88-3.18,3.41-6.53,2.7-10.42c2.63-6.67,5.33-13.31,8.84-19.59c3.08-5.5,6.48-10.79,10.9-15.33
			c0.47,0.08,0.94,0.14,1.4,0.24c5.34,1.06,10.68,2.12,16.01,3.18c0.6,2.82,0.57,5.72,0.89,8.57c0.69,6.04,1.53,12.04,3.39,17.85
			c2.37,7.41,6.26,13.79,12.55,18.55c4.73,3.58,10.1,5.76,15.76,7.34c7.01,1.95,14.22,2.93,21.35,4.33
			c4.38,0.86,8.72,1.94,13.22,2.13c9.48,0.39,17.81-2.23,24.61-9.08c4.52-4.56,7.69-9.96,9.99-15.91c1.83-0.77,2.7-2.42,3.64-4
			c0.74-1.23,1.36-2.53,2.34-3.61c1.09-1.2,2.39-1.81,4.04-1.68c3.26,0.27,5.71,2.46,6.17,5.71c0.18,1.26,0.22,2.56,0.1,3.82
			c-0.25,2.78-0.61,5.55-0.97,8.32c-1.61,12.61-3.87,25.08-7.24,37.35c-4.26,15.5-10.31,30.21-19.17,43.7
			c-4.71,7.17-10.28,13.65-15.88,20.12c-14.57,16.81-30.16,32.62-46.85,47.33c-4.91,4.33-9.92,8.55-14.89,12.82
			c-2.01-0.55-3.94,0.39-5.93,0.34c-6.06-0.15-12.11,0.07-18.18-0.35c-6.75-0.47-13.56-0.29-20.26,0.91
			c-1.93,0.34-3.98,0.43-5.73,1.51c-2.07-0.06-3.84-0.94-5.51-2.07c-1.52-1.02-2.98-2.13-4.56-3.06c-1.98-1.17-4.1-1.76-6.37-0.78
			c-10.43-0.66-17.85-5.89-22.59-15.05c-3.16-6.1-5.61-12.52-7.97-18.97c0.34-0.72,0.71-1.42,1.02-2.16
			c0.96-2.3,1.48-4.71,1.21-7.19c-0.4-3.76-1.8-7.21-3.5-10.57c-2.04-4.03-4.37-7.95-5.57-12.51
			C177.02,352.98,177.23,354.85,176.35,356.34z M231.19,359.42c0.78,0.18,1.56,0.35,2.33,0.54c8.15,1.95,16.22,4.22,24.47,5.72
			c2.27,0.41,4.51,0.69,6.88,0.44c5.81-0.6,9.29-8.49,4.74-13.51c-0.8-0.88-1.69-1.71-2.63-2.44c-3.51-2.69-7.41-4.71-11.56-6.24
			c-6.79-2.5-13.84-3.78-21.01-4.52c-0.2-0.85-0.94-1.05-1.61-1.25c-1.6-0.49-3.23-0.82-4.89-1.03c-2.99-0.38-6.01-0.65-8.86-1.79
			c-2.53-1.02-3.85-2.94-3.98-5.66c-0.12-2.52,0.29-4.91,1.16-7.26c0.28-0.76,0.78-1.53,0.47-2.54c-1.9,0.5-3.57,1.21-5.18,2.06
			c-4.92,2.58-7.67,6.48-6.89,12.22c0.68,5,2.89,7.83,7.69,8.8c2.55,0.51,5.08,0.32,7.62,0.42c0.96,0.04,1.89,0.08,2.83,0.35
			c0.88,0.25,1.37,0.65,1.49,1.59c0.23,1.65,0.69,3.28,0.79,4.94c0.18,3.02-1.4,4.62-4.43,4.64c-1.51,0.01-3-0.05-4.51-0.37
			c-3.66-0.77-6.19,0.84-7.36,4.39c-1.04,3.15-1.02,6.25,0.17,9.36c1.38,3.61,5.5,5.7,9.16,4.62c1.79-0.53,2.23-1.27,1.65-3
			c-0.38-1.13-0.86-2.24-1.36-3.32c-0.56-1.22-0.38-2.36,0.35-3.4c1.25-1.79,2.87-2.98,5.16-2.98c1.28,0,2.56-0.04,3.83-0.01
			C228.96,360.21,230.12,360.05,231.19,359.42z"/>
		<path class="st3" d="M444.46,428.35c1.47-0.11,2.81,0.43,4.19,0.82c6.64,1.9,12.91,4.62,18.67,8.45c2.72,1.8,5.3,3.8,7.67,6.07
			c3.92,3.76,7.67,7.68,10.72,12.2c2.23,3.31,4.27,6.75,6.01,10.33c4.52,9.3,10.27,17.81,16.51,26c1.2,1.57,2.37,3.21,3.92,4.51
			c0.63,0.53,1.13,1.15,0.96,2.06c-0.93,3.18-2.42,6.07-4.49,8.65c-1.87,2.33-4.22,3.92-7.27,4.19c-2.29,0.2-4.44-0.45-6.49-1.41
			c-3-1.4-5.63-3.35-8.07-5.56c-1.05-0.95-2.2-1.74-3.58-1.76c-2.68-0.05-4.91-1.22-7.2-2.38c-1.42-0.72-2.91-1.32-4.41-1.86
			c-7.17-2.58-14.64-4.02-22.09-5.38c-6.41-1.17-10.64,1.96-12.21,8.29c-0.55,2.2-0.63,4.43-0.51,6.67c0.11,2.1-0.14,4.16-0.73,6.16
			c-0.59,1.99-1.25,3.96-1.92,5.92c-0.9,2.65-1.88,5.27-2.36,8.04c-0.89,5.05,0.64,9.15,4.87,12.15c1.7,1.2,3.49,2.25,5.49,2.88
			c4.63,2.11,9.26,4.23,13.9,6.32c11.17,5.02,22.35,10.02,33.53,15.03c1.5,1.65,3.36,2.89,5,4.38c0.58,0.52,1.34,0.9,1.48,1.78
			c-1.51,6.69-2.87,13.41-4.1,20.17c-0.64,3.53-0.89,7.14-2.18,10.53c-1.54,4.06-3.85,5.09-7.88,3.47c-1.11-0.44-2.18-1-3.2-1.62
			c-1.5-0.92-2.95-1.91-4.39-2.92c-9.85-6.86-20.05-13.09-31.09-17.88c-11.9-5.17-24.25-8.41-37.27-8.86
			c-8.43-0.29-16.73,0.68-24.94,2.54c-3.16,0.72-5.84-0.35-8.04-2.6c-1.76-1.79-1.98-3.72-0.71-5.89c1.49-2.55,2.24-5.28,2.29-8.21
			c0.04-2,0.03-3.99,0.05-5.99c0.04-3.88,0.55-7.64,2.79-10.96c0.72-0.57,1-1.43,1.42-2.19c4.62-8.36,7.13-17.4,8.62-26.78
			c0.4-2.52,0.18-5.19,1.21-7.55c3.24-7.4,5.68-15.1,8.48-22.66c2.41-6.53,5.13-12.92,8.99-18.77c0.82-1.25,1.6-2.53,2.4-3.79
			c0.21-0.09,0.49-0.12,0.63-0.27c5.43-5.52,10.94-10.97,16.23-16.62c2.78-2.97,5.72-5.48,9.64-6.8c2.03-0.68,4.07-1.45,5.8-2.8
			C442.79,432.88,444.55,431.17,444.46,428.35z"/>
		<path class="st2" d="M133.74,604.02c-0.3-1.05-0.3-2.05,0.4-2.97c8.77-0.04,17.51,0.17,26.23,1.43c9.62,1.39,19.13,3.3,28.63,5.34
			c0.71,0.15,1.38,0.37,2.02,0.71c0.24,1.46,1.11,2.07,2.57,2.36c4.54,0.89,9.05,1.93,13.38,3.6c5.54,2.13,10.45,5.13,14.03,10.02
			c1.47,2.01,2.64,4.18,3.73,6.4c-0.91,1.32-0.26,2.89-0.71,4.29c-1.16,2.97-2.28,5.96-3.49,8.91c-1.7,4.14-3.46,8.25-5.2,12.38
			c-2.56,6.09-3.99,12.45-4.53,19.02c-3.65,4.84-5.86,10.28-6.73,16.27c-3,2.1-6,4.2-9,6.31c-5.67,3.97-11.35,7.95-17.02,11.92
			c-0.39,0.1-0.78,0.16-1.15,0.3c-5.82,2.19-11.64,4.39-17.46,6.6c-8.87,3.37-17.73,6.78-26.62,10.09c-1.91,0.71-3.71,1.9-5.89,1.78
			c-1.78-5.89-3.92-11.62-6.93-17.01c-4.4-7.87-10.27-14.36-18.03-19.07c-3.08-1.87-6.4-3.21-9.66-4.67
			c0.1-4.68,1.84-8.66,5.06-12.03c2.7-2.83,5.87-5.16,8.68-7.84c4.62-4.4,9.28-8.75,14.01-13.03c2.76-2.5,5.61-4.9,8.04-7.82
			c3.24-3.89,6.27-7.85,8.09-12.59c1.66-4.33,2.69-8.79,2.71-13.5c0.03-4.89-1.08-9.63-1.63-14.43
			C136.97,604.24,136.57,604.11,133.74,604.02z"/>
		<path class="st4" d="M282,421.28c4.97-4.27,9.98-8.49,14.89-12.82c16.69-14.71,32.28-30.52,46.85-47.33
			c5.6-6.46,11.18-12.94,15.88-20.12c8.85-13.49,14.91-28.2,19.17-43.7c3.37-12.26,5.63-24.74,7.24-37.35
			c0.35-2.77,0.72-5.54,0.97-8.32c0.11-1.26,0.08-2.57-0.1-3.82c-0.46-3.25-2.9-5.43-6.17-5.71c-1.65-0.14-2.95,0.48-4.04,1.68
			c-0.98,1.08-1.6,2.38-2.34,3.61c-0.94,1.57-1.81,3.23-3.64,4c-0.55-3.56,0.32-6.77,2.41-9.68c0.32-0.45,0.64-0.91,0.92-1.39
			c1.57-2.65,3.49-5.17,3.4-8.49c1.29,1.05,2.55,2.15,3.88,3.15c1.24,0.94,2.48,2.36,4.21,1.58c1.64-0.74,1.76-2.51,1.95-4.1
			c0.45-3.7,0.46-7.46,1.4-11.1c0.44-1.7,0.59-3.44,0.7-5.19c0.55-0.16,0.61-0.6,0.75-1.09c0.77-2.76,1.67-5.48,3.06-8.01
			c1.58-2.89,3.83-3.62,6.79-2.31c3.38,1.5,6.3,3.71,9.25,5.86c8.22,5.98,16.41,11.99,24.56,18.06c2.73,2.03,5.59,3.91,8.12,6.21
			c0,2.71,0.02,5.41,0,8.12c-0.03,4.58,1.27,8.75,3.85,12.52c-1.34,4.08-2.49,8.23-4.23,12.17c-0.43,0.18-0.77-0.05-1.11-0.24
			c-1.92-1.05-3.45-2.46-4.68-4.33c-3.19-4.88-7.67-7.33-13.62-6.6c-2.81,0.35-5.33,1.54-7.86,2.75c-4.64,2.22-6.6,6.02-6.88,10.93
			c-0.03,0.56-0.01,1.12-0.08,1.67c-0.41,3.4-0.18,6.86-1.16,10.21c-0.57,1.93-0.47,2.03,1.54,2.64c6.83,2.1,13.24,1.02,19.29-2.63
			c2.2-1.33,4.13-2.99,6.12-4.6c1.59-1.28,3.32-2.24,5.49-1.82c-1.87,7.18-5.06,13.77-8.98,20.04c-4.94,7.9-11.03,14.89-17.28,21.76
			c-6.43,7.06-13.52,13.38-20.93,19.38c-4.66,3.77-9.22,7.67-13.43,11.96c-5.35,5.46-9.87,11.54-13.59,18.21
			c-2.4,4.3-3.93,8.89-4.27,13.86c-0.22,3.16,0.32,6.21,0.91,9.27c-1.3,2.07-3.14,3.23-5.54,3.78c-1.59,0.36-3.17,0.17-4.74,0.36
			c-0.27-0.04-0.54-0.08-0.81-0.11c-0.13-0.81,0.11-1.58,0.19-2.37c0.16-1.75,0.75-3.46,0.56-5.23c-0.16-1.59-0.95-2.07-2.46-1.53
			c-1.21,0.43-2.28,1.14-3.32,1.9c-4.06,3-7.82,6.35-11.47,9.82c-4.81,4.56-9.54,9.2-14.31,13.81c-0.79,0.54-1.59,1.05-2.35,1.61
			c-5.94,4.42-11.88,8.84-17.82,13.27c-0.47,0.02-0.96-0.02-1.42,0.07c-2.65,0.53-5.27,1.16-7.93,1.62
			c-1.87,0.33-3.73,0.85-5.66,0.69c-2.1-0.17-2.79-0.97-2.79-3.05C281.32,423.56,281.96,422.48,282,421.28z"/>
		<path class="st5" d="M92.3,688.03c3.26,1.47,6.59,2.81,9.66,4.67c7.76,4.71,13.62,11.19,18.03,19.07
			c3.01,5.38,5.16,11.12,6.93,17.01c0.01,1.54-0.73,2.9-1.04,4.36c-1.79,0.08-3.41,0.81-5.01,1.46c-3.85,1.58-6.28,4.33-7.05,8.6
			c-0.41,2.26-0.35,4.38,0.06,6.59c0.8,4.31,2.73,7.92,6.19,10.67c0.9,0.72,2.09,1.16,2.48,2.41c-1.27,0.02-2.55-0.05-3.81,0.08
			c-5.11,0.53-9.04,3.08-12.01,7.21c-1.03,0.05-2.07,0.16-3.1,0.16c-29.57,0.01-59.14,0-88.71,0.01c-3.76,0-7.51,0.06-11.27,0.1
			c-0.78,0.01-1.55,0-2.35,0c0-0.45-0.06-0.7,0.01-0.9c4.1-11.66,9.19-22.81,16.65-32.76c3.17-4.23,6.72-8.13,10.64-11.68
			c3.08-2.79,6.09-5.66,8.83-8.79c3.33-3.81,6.18-7.93,8.33-12.53c1.12-2.39,2.41-4.69,4.09-6.75c3.66-4.5,8.27-6.04,13.88-4.5
			c0.46,0.13,0.93,0.24,1.38,0.4c2.44,0.87,4.59,0.3,6.43-1.39c1.29-1.19,2.47-2.5,3.64-3.81c1.91-2.15,4.19-3.12,7.07-2.41
			C85.51,686.52,88.89,687.32,92.3,688.03z M73.11,733.58c2.7-2.02,5.02-4.45,7.22-6.98c3.38-3.89,6-8.28,7.98-13.03
			c0.63-1.52,0.45-1.71-1.17-2c-2.43-0.44-4.87-0.89-7.3-1.35c-5.1-0.97-10.2-1.96-15.44-1.61c-7.33,0.49-12.78,4.07-16.74,10.11
			c-3.05,2.57-5.99,5.26-8.52,8.36c-2.77,3.4-4.69,7.21-5.72,11.46c-0.35,1.44-0.16,1.64,1.33,1.75c3.66,0.27,7.28,0.88,10.92,1.3
			c4.43,0.51,8.87,0.98,13.34,0.19C64.71,740.76,69.5,738.2,73.11,733.58z"/>
		<path class="st6" d="M251.52,214.2c-4.43,4.55-7.82,9.83-10.9,15.33c-3.51,6.27-6.21,12.91-8.84,19.59
			c-1.3,0.68-2.12,1.92-3.21,2.85c-4.02,3.44-8.45,5.31-13.88,4.15c-2.41-0.51-4.88-0.83-7.34-0.96
			c-6.38-0.33-12.75,0.22-19.13,0.49c-2.65-0.52-5.31-1.03-7.96-1.58c-4.28-0.89-8.65-1.38-12.88-2.55
			c0.15-4.53-0.79-8.87-2.28-13.12c-0.63-1.8-1.27-3.61-2.04-5.36c-3.26-7.42-4.89-15.31-6.76-23.13c-0.39-1.62-0.47-3.31-0.4-5
			c0.16-3.93,2.01-6.8,5.44-8.67c1.4-0.77,2.89-1.32,4.44-1.73c0.84-0.22,1.71-0.39,2.46-0.87c0.95-0.08,1.89-0.06,2.84-0.28
			c4.17-0.96,8.36-1.83,12.55-2.73c3.48,0.16,6.95,0.33,10.43,0.49c2.44,1.03,5.04,1.49,7.62,2c7.13,1.43,14.39,1.95,21.59,2.81
			c9.83,1.18,19.33,3.39,27.85,8.72c0.96,1.73,2.47,2.64,4.39,2.92c1.02,0.15,2.05,0.26,3.07,0.43c1.27,0.21,2.59,0.3,3.91,1.5
			c-1.44,0.54-2.56,0.84-3.75,0.88c-1.19,0.04-2.38,0.13-3.54,0.44C253.38,211.34,252.03,212.3,251.52,214.2z"/>
		<path class="st5" d="M178.05,710.01c5.67-3.97,11.35-7.95,17.02-11.92c3-2.1,6-4.2,9-6.31c3.03-0.09,6.05-0.2,8.81,1.48
			c2.13,1.29,4.05,2.81,5.63,4.74c0.95,1.16,1.76,2.47,3.25,3.05c0.09,1.05,0.94,0.9,1.61,1.02c3.81,0.63,7.34,2.05,10.81,3.68
			c2.45,1.15,4.72,2.65,7.28,3.58c5.34,4.62,9.99,9.84,13.73,15.84c3.44,5.53,5.96,11.43,7.03,17.9c-0.9,1.55-2.18,2.82-3.61,3.76
			c-4.38,2.88-7.56,2.15-10.93-1.65c-1-1.12-1.82-2.41-2.64-3.68c-1.23-1.88-2.65-3.58-4.29-5.1c-2.76-2.54-6.25-2.51-9,0.06
			c-0.35,0.33-0.68,0.67-1.02,1.01c-2.04,2.1-2.06,2.73-0.18,5.03c2.21,2.7,4.46,5.38,6.63,8.12c4.59,5.8,6.58,12.27,4.86,19.65
			c-0.78,0.26-1.59,0.14-2.38,0.14c-35.71,0.01-71.41,0.01-107.12,0c-0.88,0-1.75-0.07-2.63-0.1c-0.17-0.98-0.35-1.96-0.52-2.95
			c0.48-0.05,0.95-0.16,1.43-0.14c5.25,0.24,9.84-1.64,14.05-4.52c3.27-2.24,6.13-4.95,8.79-7.96c3.61-4.1,7.25-8.24,11.58-11.63
			c1.52-1.19,3.01-2.66,5.15-2.8c0.05,0.47,0.19,0.96,0.13,1.42c-0.25,1.96,0.65,3.35,2.04,4.59c2.17,1.93,4.59,3.44,7.27,4.55
			c6.26,2.59,12.8,3.36,19.48,2.77c6.4-0.57,12.35-2.46,17.23-6.93c0.88-0.8,1.88-1.49,2.87-2.16c2.31-1.58,4.64-3.12,6.96-4.67
			c0.68-0.45,1.23-0.81,0.87-1.89c-2.35-7.12-6.56-12.56-13.69-15.37c-4.55-1.79-9.28-2.19-14.12-1.51
			c-5.57,0.78-10.91,2.27-15.86,5.01c-0.26-0.74-0.87-1.13-1.55-1.35c-1.64-0.54-3.15-1.44-4.86-1.75c1.72-2.1,2.33-4.4,1.69-7.11
			C178.4,713.98,178.31,711.97,178.05,710.01z"/>
		<path class="st7" d="M183.63,190.64c-4.18,0.9-8.38,1.77-12.55,2.73c-0.95,0.22-1.89,0.2-2.84,0.28c1.07-1.58,2.41-2.95,3.37-4.63
			c2.61-4.6,2.54-9.12-0.25-13.6c-1.54-2.47-3.56-4.5-5.78-6.35c-2.46-2.05-4.82-4.19-6.81-6.72c-3.66-4.63-5.61-9.8-4.93-15.79
			c3.33,0.01,6.65,0.03,9.98,0.05c1.48,4.23,3.43,8.21,6.22,11.75c0.69,0.87,1.26,1.81,2.18,2.51c3.67,2.78,7.55,2.93,11.65,1.11
			c2.12-0.94,4.12-2.11,5.98-3.49c1.81-1.34,3.78-1.94,6.03-1.85c4.06,0.17,8.12-0.03,12.15-0.5c4.66-0.54,9.32-0.8,14.01-0.97
			c4.24-0.15,8.41,0.68,12.64,0.51c4.15-0.16,8.24,0.82,12.39,0.5c0.08-0.01,0.16,0,0.24,0.01c5.05,0.69,10.14,0.69,15.21,0.91
			c3.11,0.14,6.23,0.03,9.34,0.02c2.38,0,4.78,0.13,7.12-0.48c4.82,0.96,9.64,1.91,14.47,2.87c5.99,1.18,11.98,2.39,17.98,3.54
			c6.77,1.3,13.54,2.65,20.36,3.7c4.86,0.75,9.69,1.74,14.57,2.24c3.86,0.4,7.71,1.02,11.61,1.15c1.97,0.07,3.94,0.5,5.93,0.47
			c0.79,4.67,3.25,8.56,5.92,12.3c2.4,3.36,4.86,6.66,6.45,10.5c0.94,2.27,1.47,4.66,1.47,7.14c-3.47-1.05-6.93-2.1-10.4-3.14
			c-1.54-1.16-3.29-1.95-4.98-2.83c-34.54-18.02-71.5-26.67-110.24-28.26c-12.78-0.52-25.57-0.36-38.34,0.49
			c-5.02,0.34-10.05,0.6-15.03,1.33c-7.07,1.05-11.86,4.83-13.87,11.83C183.87,183.47,183.48,187.02,183.63,190.64z"/>
		<path class="st6" d="M242.04,770.28c1.72-7.38-0.27-13.85-4.86-19.65c-2.17-2.74-4.42-5.42-6.63-8.12
			c-1.88-2.3-1.86-2.93,0.18-5.03c0.33-0.34,0.67-0.69,1.02-1.01c2.75-2.57,6.24-2.6,9-0.06c1.65,1.52,3.07,3.22,4.29,5.1
			c0.83,1.26,1.65,2.55,2.64,3.68c3.37,3.8,6.55,4.53,10.93,1.65c1.44-0.94,2.71-2.22,3.61-3.76c1.04,0,2.07,0.04,3.1-0.02
			c4.7-0.26,9.4-0.56,14.1-0.84c0.57,0.65,1.41,0.71,2.14,0.99c7.49,2.86,15.37,3.51,23.26,3.77c4.62,0.15,9.25,0.07,13.89-0.25
			c4.93-0.34,9.91-0.05,14.87-0.03c3.25,0.63,6.56,0.88,9.76,1.77c4.95,1.39,9.85,2.91,14.44,5.28c0.43,2.49,0.88,4.97,1.28,7.46
			c0.5,3.04,0.96,6.08,1.44,9.11c-0.8,0.03-1.59,0.1-2.39,0.1c-37.9,0-75.79,0.01-113.69,0
			C243.62,770.42,242.82,770.55,242.04,770.28z"/>
		<path class="st8" d="M135.97,588.63c-0.04-0.52-0.4-0.82-0.73-1.18c-0.62-0.69-0.88-1.56-0.65-2.46c1.34-5.2,1.14-10.57,1.9-15.83
			c0.78-5.34,1.43-10.69,2.21-16.03c0.92-6.29,1.98-12.55,3.1-18.8c1.09-6.1,2.51-12.14,3.86-18.19c2.09-9.4,4.65-18.68,7.23-27.95
			c0.71-2.53,1.54-5.03,2.34-7.54c1.3-4.1,2.62-8.19,3.95-12.27c0.09-0.29,0.21-0.61,0.83-0.82c-0.42,2.19-0.8,4.25-1.23,6.3
			c-0.51,2.41-1.08,4.8-1.59,7.21c-0.19,0.88-0.27,1.69,0.94,2.09c1.13,0.37,1.46,1.38,1.37,2.53c-0.03,0.48,0,0.96-0.01,1.44
			c-0.06,4.07,0.21,8.09,0.83,12.13c0.52,3.37,1.03,6.75,1.62,10.11c0.19,1.1,0.03,2.47,1.31,3.17c0.05,0.38,0.09,0.75-0.35,0.94
			c-0.01,0.65-0.2,1.36,0.62,1.7c0.51,2.01,0.43,4.09,0.93,6.12c0.97,3.99,2.52,7.73,4.15,11.47c0.95,2.17,2.23,4.27,1.63,6.82
			c-0.07,0.29,0.11,0.62,0.14,0.94c0.24,2.27,1.23,4.29,2.09,6.35c0.86,2.07,1.86,4.12,1.87,6.4c0.01,1.84,0.34,3.54,0.85,5.32
			c0.94,3.29,2.33,6.26,4.41,8.96c3.53,4.58,6.23,9.67,8.85,14.8c0.66,1.28,1.23,2.61,1.45,4.05c0.26,1.64-0.22,2.58-1.74,3.26
			c-0.57,0.26-1.21,0.4-1.83,0.54c-2.59,0.59-5.24,0.49-7.87,0.74c-2.41,0.23-4.75,0.1-6.96-1.16c-1.02-0.58-2.24-0.84-3.39-1.18
			c-7.33-2.19-14.83-2.19-22.35-1.63C142.47,587.23,139.07,587.03,135.97,588.63z"/>
		<path class="st9" d="M360.07,14.09c0.02,0.62-0.34,1.04-0.74,1.44c-0.62,0.62-1.32,1.19-1.85,1.88c-3.16,4.1-7.65,5.9-12.42,7.15
			c-1.95,0.51-3.77,1.29-5.61,2.02c-1.57,0.62-3,1.51-4.09,2.84c-1.11,1.35-2.53,2.07-4.2,2.54c-4.73,1.32-9.12,3.41-12.99,6.44
			c-4.2,3.28-8.47,6.5-11.73,10.8c-0.1,0.13-0.21,0.24-0.32,0.36c-4.24,4.12-7.85,8.86-12.3,12.75c-4.55,3.98-9.17,7.89-14.49,10.86
			c-2.79,1.56-5.81,2.11-8.99,1.92c-1-0.06-1.28-0.47-1.5-1.41c-0.73-3.17-0.58-6.39-0.33-9.54c0.36-4.51,1.3-8.95,2.74-13.28
			c2.14-6.48,5.21-12.49,8.67-18.33c1.93-3.26,4.15-6.22,6.93-8.8c7.89-7.36,16.49-13.62,26.82-17.09
			c4.06-1.36,8.23-2.34,12.56-2.73c2.55-0.23,5.08-0.32,7.63-0.38c0.62-0.01,1.3,0.15,1.75-0.5c3.98,0.31,7.6,1.55,10.73,4.1
			c1.48,1.21,3,2.36,4.52,3.51C353.57,12.71,356.61,13.97,360.07,14.09z"/>
		<path class="st9" d="M502.68,140.19c-1.5,1.44-3.53,1.74-5.36,2.44c-0.72,0.27-1.19-0.24-1.42-0.93c-1.54-4.7-5.29-7.25-9.37-9.37
			c-4.25-2.21-8.5-4.42-13.02-6.04c-3.6-1.29-7.31-2.14-11.09-2.77c-9.92-1.64-19.91-0.99-29.86-0.81
			c-4.21,0.08-8.46,0.49-12.65,0.25c-4.62-0.26-9.24-0.19-13.86-0.43c-5.2-0.26-7.34-4.7-6.38-8.97c1.02-4.49,4.14-7.4,8.38-8.77
			c7.2-2.32,14.51-4.3,21.66-6.79c4.82-1.68,9.67-3.24,14.63-4.41c6.32-1.5,12.74-2.22,19.2-1.67c8.3,0.69,16.59,0.31,24.88,0.28
			c2.39,3.95,3.64,8.32,4.52,12.78c1.06,5.4,1.91,10.84,2.81,16.26C496.86,128,498.95,134.39,502.68,140.19z"/>
		<path class="st9" d="M451.77,55.76c-1.16,1.96-3.11,2.48-5.14,2.47c-3.9-0.02-7.79,0.12-11.71-0.32c-2.64-0.3-5.41,0.16-8.08,0.47
			c-6.83,0.79-13.38,2.78-19.84,5.1c-4.8,1.73-9.47,3.78-14.18,5.75c-4.12,1.72-8.21,3.51-12.36,5.17
			c-3.79,1.52-7.37,3.44-10.81,5.63c-3.77,2.39-7.46,4.91-11.43,6.98c-2.71,1.41-5.54,2.53-8.53,3.04
			c-3.87,0.67-7.77,0.76-11.58-0.51c-3.19-1.07-5.08-4.98-3.94-8.13c0.58-1.61,1.56-2.96,2.78-4.14c3.57-3.44,6.79-7.21,10.18-10.81
			c2.62-2.79,5.32-5.51,7.94-8.31c0.76-0.81,1.41-1.73,2.15-2.56c2.14-2.4,4.61-4.34,7.42-5.96c2.97-1.71,5.47-4.11,8.12-6.28
			c3.4-2.79,6.83-5.49,10.9-7.28c1.55-0.68,3.14-1.13,4.73-1.64c2.65-0.86,5.27-1.84,7.91-2.75c0.52-0.18,1.08-0.26,1.62-0.39
			c0.52,0.7,1.05,1.4,1.55,2.11c3.51,5,7.71,9.44,12.35,13.3c6.01,5.01,12.93,8.28,20.91,9.23c4.82,0.57,9.5,0.33,14.22-0.52
			c0.67-0.12,1.49,0.12,1.94-0.67C449.89,54.97,451.03,54.79,451.77,55.76z"/>
		<path class="st3" d="M370.54,400.04c1.87-1.16,1.95-1.99,0.32-3.02c-0.45-0.29-1.09-0.34-1.33-0.97c0.36-0.64,0.8-0.22,1.18-0.06
			c9.29,4,18.59,7.99,27.87,12.02c8.99,3.9,17.96,7.86,26.95,11.76c5.26,2.28,10.55,4.51,15.82,6.76c0.58,0.25,1.22,0.47,1.26,1.27
			c-0.56,0.03-1.12,0.11-1.67,0.08c-4.7-0.27-8.78,1.43-12.5,4.07c-3.44,2.44-6.25,5.64-9.75,8.06c-2.33,1.61-4.19,3.91-5.95,6.2
			c-2.14,2.77-4.78,4.92-8.2,5.96c-6.84-1.88-13.7-3.7-20.53-5.65c-5.9-1.68-11.95-2.88-17.72-5c-4.02-1.48-5.16-3.63-4.18-7.8
			c0.14-0.62,0.39-1.21,0.62-1.81c1.7-4.39,3.85-8.59,5.67-12.93c1.11-2.63,2.12-5.33,2.76-8.12
			C371.97,407.22,371.78,403.59,370.54,400.04z"/>
		<path class="st10" d="M135.97,588.63c3.09-1.6,6.5-1.4,9.81-1.65c7.52-0.55,15.02-0.56,22.35,1.63c1.15,0.34,2.37,0.59,3.39,1.18
			c2.21,1.26,4.55,1.39,6.96,1.16c2.62-0.25,5.28-0.16,7.87-0.74c0.62-0.14,1.25-0.29,1.83-0.54c1.51-0.68,1.99-1.62,1.74-3.26
			c-0.23-1.44-0.79-2.76-1.45-4.05c-2.63-5.12-5.32-10.22-8.85-14.8c-2.08-2.69-3.47-5.67-4.41-8.96c-0.51-1.78-0.84-3.48-0.85-5.32
			c-0.01-2.28-1.01-4.33-1.87-6.4c-0.86-2.06-1.85-4.08-2.09-6.35c-0.03-0.32-0.21-0.66-0.14-0.94c0.61-2.56-0.68-4.65-1.63-6.82
			c-1.63-3.74-3.18-7.49-4.15-11.47c-0.5-2.03-0.42-4.11-0.93-6.12c-0.12-0.6,0.27-1.38-0.62-1.7c0.44-0.19,0.4-0.57,0.35-0.94
			c-0.3-4.3-1.03-8.55-1.59-12.81c-1.04-7.92-1.82-15.85-1.21-23.85c0.1-1.28,0.2-2.55,0.61-3.77c2.14,0.03,4.09-0.95,6.18-1.18
			c0.89,0.42,1.83,0.64,2.82,0.7c0.56,2.57,0.48,5.19,0.47,7.8c0,2.38-0.02,4.76,0.02,7.14c0.01,0.76-0.26,1.61,0.45,2.24
			c0,10.8,0.01,21.6-0.02,32.4c0,1.18,0.28,2.16,0.96,3.11c5.49,7.67,9.2,16.24,12.39,25.02c3.79,10.41,6.84,21.08,10.19,31.64
			c-0.17,1.23,0.32,2.36,0.62,3.5c0.81,3.05,1.4,6.05-0.36,8.99c-0.4,0.67-0.16,1.35,0.02,2.07c1.07,4.29,0.3,8.14-2.91,11.34
			c-0.47,0.47-0.75,1.02-0.87,1.66c-0.64-0.33-1.3-0.55-2.02-0.71c-9.49-2.04-19-3.95-28.63-5.34c-8.72-1.26-17.46-1.47-26.23-1.43
			C132.77,596.62,133.52,592.5,135.97,588.63z"/>
		<path class="st10" d="M370.54,400.04c1.24,3.56,1.43,7.18,0.6,10.84c-0.64,2.79-1.65,5.49-2.76,8.12
			c-1.82,4.34-3.97,8.54-5.67,12.93c-0.23,0.59-0.48,1.19-0.62,1.81c-0.98,4.17,0.16,6.32,4.18,7.8c5.78,2.12,11.82,3.31,17.72,5
			c6.82,1.94,13.68,3.77,20.53,5.65c2.33,2.46,3.96,5.24,3.99,8.75c-0.8,1.27-1.58,2.55-2.4,3.79c-3.85,5.85-6.58,12.24-8.99,18.77
			c-2.79,7.57-5.23,15.26-8.48,22.66c-1.03,2.36-0.81,5.03-1.21,7.55c-1.49,9.38-4.01,18.41-8.62,26.78
			c-0.42,0.76-0.71,1.62-1.42,2.19c0.15-3.41-2.5-6.46-6.26-5.87c0.01-3.12-0.33-6.28,0.11-9.34c0.68-4.76,2.56-9.2,5.07-13.32
			c2.95-4.82,5.85-9.69,9.06-14.34c1.84-2.66,2.18-5.58,2.49-8.55c0.31-3.02,0.82-5.97,1.76-8.86c1.08-3.32,2.49-6.55,2.89-10.08
			c0.43-3.77-0.14-7.35-2.5-10.39c-2.44-3.13-5.74-4.99-9.63-5.81c-2.65-0.56-5.31-1.02-8.03-0.9c-2.4,0.11-4.78-0.07-7.13-0.54
			c-1.97-0.39-3.76-1.18-5.27-2.63c-1.11-1.07-1.84-2.38-2.77-3.56c-0.03-2.37-0.16-4.72-0.4-7.1c-0.46-4.51,0-8.98,1.48-13.35
			c1.11-3.28,1.45-6.64-0.6-9.79c0.06-1.89,1.08-3.44,1.8-5.1c2.62-6.01,5.23-12.02,7.84-18.03
			C368.85,396.45,369.45,398.4,370.54,400.04z"/>
		<path class="st11" d="M524.58,522.42c3.75,7.78,6.75,15.87,9.62,24c5,14.16,9.18,28.58,13.92,42.82
			c2.78,8.33,5.76,16.59,7.77,25.16c2.13,9.1,3.84,18.28,5.68,27.44c2.38,11.83,5.04,23.58,9.56,34.83
			c1.4,3.49,2.91,6.93,4.74,10.21c2.15,3.85,2.74,7.96,2.3,12.28c-0.45,4.45-1.25,8.86-1.49,13.33c-0.71,0-1.41,0-2.12-0.01
			c-0.08-0.47-0.12-0.95-0.26-1.4c-1.23-3.95-2.3-7.95-3.45-11.93c-3.01-10.48-5.88-21-8.61-31.55
			c-3.66-14.18-7.49-28.31-11.55-42.38c-2.78-9.64-5.66-19.25-8.73-28.81c-3.31-10.33-6.69-20.64-10.39-30.84
			c-1.77-4.87-3.66-9.7-5.31-14.61c-0.83-2.49-2.2-4.78-2.61-7.41c0.26-4.54-0.29-8.94-1.71-13.3c-0.77-2.36-1.78-4.75-1.64-7.35
			C521.78,523.14,523.12,522.28,524.58,522.42z"/>
		<path class="st12" d="M574.56,712.48c0.71,0,1.41,0,2.12,0.01c3.47,7.97,6.94,15.94,10.42,23.91c-0.32,0.27-0.48,0.62-0.52,1.04
			c-0.37,4.08-1.44,8-3.09,11.72c-3.01,6.8-7.71,12.01-14.69,14.98c-3.69,1.57-7.53,2.53-11.48,3.11
			c-9.57,0.1-19.13-0.33-28.69-0.48c-10.78-0.16-21.56-0.06-32.34-0.07c0.94-2.18,2.44-3.9,4.38-5.27
			c3.63-2.56,7.71-2.72,11.91-2.16c2.75,0.37,5.48,1.02,8.23,1.16c4.21,0.21,8.46,0.28,12.63-0.49c8.21-1.51,16.02-4.01,22.89-9.04
			c6.9-5.06,11.78-11.61,14.83-19.52C573.5,725.32,574.79,719.03,574.56,712.48z"/>
		<path class="st10" d="M524.58,522.42c-1.46-0.14-2.8,0.72-4.27,0.49c-5.94,0.02-11.88,0.03-17.82,0.05
			c-1.61,0.09-3.16-0.32-4.73-0.53c-0.84-0.11-1.32-0.51-1.41-1.34c-0.38-3.38-2.77-4.61-5.67-5.24c-0.77-0.17-1.59-0.14-2.38-0.13
			c-1.06,0.02-1.81-0.21-2.13-1.42c-0.66-2.47-2.43-3.72-4.81-4.5c-2.13-0.7-4.34-0.95-6.46-1.64c-2.22-0.72-4.13-1.73-5-4.05
			c-0.4-1.06-1.12-1.4-2.22-1.36c-1.67,0.07-3.35,0-5.03,0c-4.31,0-8.64-0.22-12.93,0.06c-5.76,0.38-7.39,2.25-7.53,6.41
			c-0.27,8.05,0.25,16.11-0.48,24.15c-0.3,3.34,0.74,6.65,0.43,10.01c-2-0.63-3.79-1.68-5.49-2.88c-4.23-3-5.76-7.1-4.87-12.15
			c0.49-2.77,1.46-5.39,2.36-8.04c0.67-1.97,1.33-3.93,1.92-5.92c0.59-2,0.84-4.06,0.73-6.16c-0.12-2.24-0.03-4.47,0.51-6.67
			c1.57-6.32,5.8-9.46,12.21-8.29c7.45,1.36,14.92,2.8,22.09,5.38c1.5,0.54,2.99,1.14,4.41,1.86c2.29,1.16,4.52,2.33,7.2,2.38
			c1.38,0.02,2.53,0.81,3.58,1.76c2.44,2.21,5.07,4.17,8.07,5.56c2.05,0.96,4.2,1.61,6.49,1.41c3.05-0.27,5.4-1.86,7.27-4.19
			c2.07-2.58,3.57-5.47,4.49-8.65c0.46-0.09,0.75,0.14,0.98,0.5c3.94,6.21,7.84,12.44,9.78,19.64
			C524.18,520.07,524.56,521.21,524.58,522.42z"/>
		<path class="st9" d="M261.66,20.17c0.2,1.07-0.3,1.83-1.07,2.5c-2.28,1.98-4.6,3.94-6.81,5.99c-2.28,2.12-4.47,4.34-6.7,6.52
			c-7.54,7.38-14.25,15.46-20.29,24.1c-0.88,1.25-1.6,2.5-1.78,4.08c-0.33,2.91-2.23,5.05-3.89,7.28c-0.76,1.02-1.57,2.01-2.21,3.11
			c-0.94,1.61-2.36,2.08-4.08,1.72c-5.31-1.13-6.13-2.45-6.88-8.2c-0.47-3.6,0.76-6.74,2.51-9.78c1.59-2.76,3.13-5.56,4.64-8.37
			c2.79-5.2,5.55-10.42,8.31-15.64c0.37-0.69,0.88-1.36,0.77-2.22c6.81-4.55,14.48-6.87,22.41-8.45
			C251.6,21.82,256.64,21.04,261.66,20.17z"/>
		<path class="st13" d="M92.3,688.03c-3.41-0.7-6.79-1.51-10.06-2.73c0.56-3.14,1.09-6.27,2.56-9.18
			c2.91-5.74,7.49-9.88,12.67-13.45c4.68-3.22,9.07-6.78,13.09-10.8c10.12-10.13,16.76-22.23,20.65-35.93
			c1.11-3.91,2.11-7.85,2.52-11.92c2.83,0.09,3.23,0.22,3.52,2.77c0.56,4.81,1.66,9.54,1.63,14.43c-0.03,4.71-1.05,9.17-2.71,13.5
			c-1.82,4.74-4.85,8.7-8.09,12.59c-2.43,2.91-5.27,5.32-8.04,7.82c-4.73,4.28-9.39,8.63-14.01,13.03
			c-2.82,2.68-5.98,5.01-8.68,7.84C94.14,679.36,92.4,683.35,92.3,688.03z"/>
		<path class="st7" d="M445.95,255.54c-2.58-3.78-3.88-7.94-3.85-12.52c0.02-2.71,0-5.41,0-8.12c2.21-0.69,4.51-0.86,6.8-0.94
			c3.02-0.1,6.05-0.36,9.04-0.64c4.25-0.39,8.53-0.58,12.78-1.25c5.53-0.88,10.9-2.16,15.97-4.59c5.04-2.42,9.27-5.89,12.62-10.32
			c1.46-1.94,3.11-3.85,3.76-6.31c2.51,0.01,5.02,0.01,7.53,0.04c0.76,0.01,1.6-0.19,2.16,0.59c-2.95,7.14-7.52,13.1-13.25,18.21
			c-7.14,6.36-15.52,10.54-24.41,13.81c-4.64,1.71-9.42,2.97-14.15,4.36C455.45,249.48,450.28,251.69,445.95,255.54z"/>
		<path class="st13" d="M167.38,251.53c4.23,1.17,8.59,1.66,12.88,2.55c2.65,0.55,5.31,1.05,7.96,1.58c0.74,1.14,1.95,1.63,3.12,2.1
			c2.6,1.04,5.32,1.6,8.12,1.61c3.82,0.02,7.64,0.03,11.46-0.01c1.38-0.02,2.7,0.29,3.97,0.7c2.48,0.8,3.17,2.47,2.04,4.83
			c-1.3,2.74-3.08,5.18-5.07,7.46c-7.59-0.01-15.19-0.08-22.78,0.02c-2.96,0.04-5.85-0.74-8.81-0.54c-1.52,0.1-3.06,0.27-4.43,0.8
			c-3.49,1.35-4.85,3.53-5.32,7.51c-0.09,0.79-0.05,1.6-0.06,2.4c-2.83-4.46-5.31-9.11-6.62-14.26c-1.36-5.37-0.63-10.45,2.5-15.11
			C166.71,252.62,167.04,252.07,167.38,251.53z"/>
		<path class="st10" d="M496.3,766.7c10.78,0.01,21.56-0.09,32.34,0.07c9.56,0.14,19.12,0.58,28.69,0.48c0,0.99-0.01,1.99-0.01,2.98
			c-1.19,0.29-2.39,0.1-3.58,0.1c-52.35,0.01-104.7,0-157.05,0.02c-11.19,0-22.38,0.07-33.57,0.1c-0.87,0-1.75-0.07-2.62-0.11
			c-0.48-3.04-0.94-6.08-1.43-9.11c-0.41-2.49-0.86-4.98-1.29-7.46c1.97,0.56,3.47,1.92,5.07,3.08c2.71,1.96,5.28,4.1,8.01,6.02
			c4.28,3.01,8.98,4.6,14.33,4.4c5.89-0.22,11.79-0.4,17.68-0.44C434,766.64,465.15,766.71,496.3,766.7z"/>
		<path class="st13" d="M438.77,275.69c-2.17-0.42-3.9,0.54-5.49,1.82c-1.99,1.6-3.93,3.27-6.12,4.6
			c-6.05,3.66-12.45,4.74-19.29,2.63c-2.01-0.62-2.1-0.71-1.54-2.64c0.98-3.34,0.75-6.81,1.16-10.21c0.07-0.55,0.05-1.12,0.08-1.67
			c0.28-4.91,2.23-8.71,6.88-10.93c2.53-1.21,5.05-2.4,7.86-2.75c5.95-0.73,10.42,1.72,13.62,6.6c1.23,1.87,2.76,3.28,4.68,4.33
			c0.34,0.19,0.69,0.42,1.11,0.24c0.12,0.62,0.29,1.24,0.36,1.87C442.45,272.84,441.78,274.05,438.77,275.69z"/>
		<path class="st8" d="M170.06,471.63c-0.98-0.06-1.92-0.28-2.82-0.7c-0.42-3.7,0.18-7.17,2.5-10.17c1.27-1.64,2.74-3.1,4.46-4.29
			c2.68-1.86,5.41-3.67,7.98-5.67c1.87-1.45,3.79-2.95,4.67-5.31c7.12-4.16,14.24-8.34,21.38-12.48c0.95-0.55,1.88-1.22,3.03-1.32
			c2.55,1.86,4.6,4.16,5.99,7.01c1.39,2.84,0.91,5.42-1.21,7.72c-1.42,1.55-3.18,2.65-5.03,3.62c-2.76,1.44-5.7,2.49-8.57,3.67
			c-6.2,2.55-12.37,5.18-17.91,9.03c-2.48,1.73-4.96,3.47-6.87,5.88c-0.62,0.03-1.25,0.09-1.87,0.08
			C173.37,468.67,171.36,469.44,170.06,471.63z"/>
		<path class="st10" d="M177.67,468.63c1.91-2.41,4.39-4.15,6.87-5.88c5.54-3.86,11.71-6.48,17.91-9.03
			c2.87-1.18,5.81-2.23,8.57-3.67c1.85-0.97,3.6-2.07,5.03-3.62c2.11-2.3,2.59-4.89,1.21-7.72c-1.39-2.85-3.44-5.15-5.99-7.01
			c0.69-3.52,2.1-6.83,3.07-10.27c0.35-1.22,0.75-2.43,1.12-3.65c2.27-0.98,4.39-0.39,6.37,0.78c1.57,0.93,3.04,2.03,4.56,3.06
			c1.67,1.13,3.44,2,5.51,2.07c0.78,1.48,2.47,1.56,3.68,2.38c0.7,0.47,1.68,0.64,1.64,1.78c-0.46,0.17-0.93,0.33-1.39,0.5
			c-1.6,0-3.2-0.06-4.79,0c-2.81,0.1-5.23,2.37-5.84,5.09c-0.39,1.74-0.44,3.47-0.44,5.22c0,5.36,0,10.71-0.01,16.07
			c-2.86,0.12-5.69,0.71-8.57,0.51c-0.74-0.05-1.4,0.34-1.98,0.77c-2.78,2.08-5.94,3.39-9.17,4.57c-4.01,1.48-7.74,3.41-10.41,6.91
			c-0.25,0.32-0.5,0.69-0.94,0.64c-1.7-0.18-3.3,0.53-4.97,0.52C185.02,468.64,181.35,468.64,177.67,468.63z"/>
		<path class="st7" d="M448.88,54.77c-0.45,0.79-1.26,0.55-1.94,0.67c-4.71,0.86-9.4,1.1-14.22,0.52
			c-7.98-0.95-14.9-4.23-20.91-9.23c-4.64-3.87-8.84-8.3-12.35-13.3c-0.5-0.72-1.03-1.41-1.55-2.11c0.16-1.05,0.94-1.64,1.7-2.18
			c2.25-1.57,3.67-3.47,2.81-6.4c-0.04-0.13,0.25-0.36,0.39-0.55c3.8,1.71,7.27,3.98,10.74,6.25c8.24,5.38,15.87,11.58,23.68,17.55
			C441.09,48.94,445,51.84,448.88,54.77z"/>
		<path class="st11" d="M367.3,395.11c-2.61,6.01-5.22,12.02-7.84,18.03c-0.72,1.66-1.75,3.21-1.8,5.1
			c-1.35,0.15-1.99,1.24-2.72,2.15c-3.6,4.53-7.21,9.04-12.06,12.34c-1.95,1.33-3.51,3.22-5.93,3.86c-1.99,0.53-3.9,0.03-4.97-1.69
			c-0.7-1.13-1.42-2.31-1.66-3.67c0.8-0.65,1.58-1.33,2.4-1.96c3.87-2.96,7.58-6.09,10.94-9.64c6.82-7.2,9.21-15.64,7.26-25.35
			c1.57-0.19,3.15,0,4.74-0.36c2.4-0.55,4.24-1.71,5.54-3.78C363.28,391.75,365.46,393.23,367.3,395.11z"/>
		<path class="st5" d="M557.31,770.22c0-0.99,0.01-1.99,0.01-2.98c3.95-0.57,7.79-1.54,11.48-3.11c6.98-2.97,11.68-8.18,14.69-14.98
			c1.65-3.72,2.72-7.64,3.09-11.72c0.04-0.42,0.2-0.76,0.52-1.04c3.45,3.67,5.11,8.19,6.14,12.99c1.17,5.42,0.98,10.95,1.28,16.44
			c0.08,1.42,0.73,3.23-0.11,4.18c-0.96,1.1-2.86,0.38-4.35,0.39c-10.05,0.04-20.1,0.03-30.15,0.01
			C559.05,770.41,558.16,770.58,557.31,770.22z"/>
		<path class="st13" d="M408.5,460.93c-0.02-3.51-1.66-6.29-3.99-8.75c3.42-1.05,6.06-3.19,8.2-5.96c1.77-2.29,3.63-4.59,5.95-6.2
			c3.5-2.42,6.31-5.62,9.75-8.06c3.73-2.64,7.81-4.34,12.5-4.07c0.55,0.03,1.11-0.05,1.67-0.08c0.62,0.18,1.24,0.36,1.86,0.54
			c0.1,2.82-1.67,4.53-3.66,6.08c-1.72,1.35-3.77,2.12-5.8,2.8c-3.92,1.32-6.86,3.84-9.64,6.8c-5.29,5.65-10.8,11.1-16.23,16.62
			C408.98,460.82,408.71,460.85,408.5,460.93z"/>
		<path class="st13" d="M186.85,445.49c-0.88,2.36-2.81,3.85-4.67,5.31c-2.57,2-5.29,3.82-7.98,5.67c-1.72,1.19-3.2,2.65-4.46,4.29
			c-2.32,3-2.92,6.47-2.5,10.17c-2.09,0.23-4.04,1.21-6.18,1.18c-0.71-5.44,0.18-10.48,3.67-14.89c2.08-2.63,4.79-4.46,7.7-5.96
			C177.05,448.88,181.95,447.15,186.85,445.49z"/>
		<path class="st14" d="M176.35,356.34c0.88-1.49,0.67-3.36,1.71-5c1.2,4.56,3.53,8.47,5.57,12.51c1.7,3.36,3.1,6.81,3.5,10.57
			c0.27,2.48-0.25,4.89-1.21,7.19c-0.31,0.73-0.68,1.44-1.02,2.16c-1.6-1.92-2.47-4.22-3.39-6.49c-2.03-5.02-3.23-10.28-4.22-15.59
			C176.96,359.91,176.2,358.2,176.35,356.34z"/>
		<path class="st13" d="M129.39,767.37c0.17,0.98,0.35,1.97,0.52,2.95c-0.69,0.27-1.41,0.2-2.12,0.2c-6.34,0-12.69,0.01-19.03-0.01
			c-0.68,0-1.44,0.25-2.03-0.35c2.96-4.13,6.89-6.68,12.01-7.21c1.26-0.13,2.54-0.06,3.81-0.08c2.48,0.46,4.51,1.63,6.02,3.68
			C128.79,766.86,129.12,767.1,129.39,767.37z"/>
		<path class="st9" d="M503.06,210.85c-0.66,2.46-2.3,4.37-3.76,6.31c-3.35,4.43-7.58,7.9-12.62,10.32
			c-5.06,2.43-10.43,3.71-15.97,4.59c-4.24,0.68-8.52,0.86-12.78,1.25c-2.99,0.27-6.01,0.53-9.04,0.64
			c-2.28,0.08-4.58,0.25-6.8,0.94c-2.54-2.29-5.39-4.17-8.12-6.21c-8.15-6.07-16.34-12.09-24.56-18.06
			c-2.95-2.15-5.87-4.36-9.25-5.86c-2.96-1.31-5.21-0.58-6.79,2.31c-1.39,2.53-2.29,5.25-3.06,8.01c-0.13,0.49-0.2,0.93-0.75,1.09
			c-0.2-4.8-2.28-8.63-5.93-11.69c-1.83-1.53-3.9-2.69-5.92-3.93c0-2.48-0.53-4.87-1.47-7.14c-1.59-3.84-4.05-7.14-6.45-10.5
			c-2.67-3.74-5.14-7.63-5.92-12.3c2.43-0.54,4.89-0.54,7.37-0.53c2.79,0.02,5.53,0.75,8.34,0.49c0.7-0.07,1.17,0.38,1.68,0.78
			c1.82,1.41,3.87,2.26,6.2,2.1c5.23-0.37,10.28,0.91,15.4,1.57c3.77,0.49,7.52,1.2,11.28,1.78c9.42,1.44,18.81,2.98,28.11,5.07
			c7.31,1.65,14.54,3.53,21.61,5.98c9.37,3.25,18.31,7.39,26.76,12.64C495.3,203.38,499.54,206.66,503.06,210.85z"/>
		<path class="st9" d="M278.97,156.65c-2.34,0.61-4.74,0.48-7.12,0.48c-3.11,0-6.23,0.11-9.34-0.02
			c-5.07-0.23-10.16-0.22-15.21-0.91c-0.08-0.01-0.16-0.02-0.24-0.01c-4.15,0.32-8.25-0.66-12.39-0.5
			c-4.22,0.17-8.4-0.67-12.64-0.51c-4.69,0.17-9.35,0.42-14.01,0.97c-4.03,0.47-8.09,0.68-12.15,0.5c-2.25-0.1-4.22,0.51-6.03,1.85
			c-1.86,1.37-3.85,2.54-5.98,3.49c-4.09,1.82-7.98,1.67-11.65-1.11c-0.92-0.7-1.49-1.63-2.18-2.51c-2.79-3.54-4.75-7.51-6.22-11.75
			c4.39-0.01,8.8-0.29,13.17,0.06c3.58,0.29,7.18,0.05,10.73,0.47c3.67,0.43,7.35,0.05,10.97,0.48c3.67,0.43,7.34,0.07,10.97,0.48
			c3.74,0.43,7.5,0.06,11.2,0.49c3.59,0.42,7.18,0.06,10.73,0.47c3.82,0.43,7.65,0.13,11.45,0.49c2.54,0.24,5.07,0.37,7.62,0.39
			c0.76,0,1.35,0.24,1.96,0.71c2.41,1.85,5.1,2.81,8.21,2.7c3.51-0.13,7.03-0.15,10.54-0.01C274.26,153.45,277,154.23,278.97,156.65
			z"/>
		<path class="st6" d="M377.43,231.83c0.09,3.32-1.83,5.83-3.4,8.49c-0.28,0.48-0.59,0.94-0.92,1.39c-2.08,2.91-2.96,6.11-2.41,9.68
			c-2.31,5.95-5.47,11.35-9.99,15.91c-6.8,6.85-15.14,9.47-24.61,9.08c-4.5-0.19-8.84-1.26-13.22-2.13
			c-7.12-1.4-14.33-2.38-21.35-4.33c-5.66-1.58-11.03-3.76-15.76-7.34c-6.29-4.76-10.18-11.14-12.55-18.55
			c-1.86-5.81-2.7-11.82-3.39-17.85c-0.33-2.85-0.3-5.75-0.89-8.57c0.3-0.51,0.25-1.08,0.3-1.63c0.44-4.4,2.37-6.6,6.69-7.59
			c0.85-0.19,1.73-0.35,2.6-0.41c6.22-0.41,12.46-0.51,18.69-0.38c5.59,0.12,11.17,0.53,16.77,0.29c1.68,0.11,3.31,0.43,4.94,0.82
			c10.73,2.52,21.35,5.47,32.01,8.22c4.56,1.18,9.18,2.14,13.54,3.98C369.92,223.23,374.46,226.6,377.43,231.83z"/>
		<path class="st5" d="M234.42,339.41c7.17,0.74,14.23,2.01,21.01,4.52c4.15,1.53,8.04,3.55,11.56,6.24
			c0.95,0.73,1.83,1.55,2.63,2.44c4.55,5.02,1.07,12.92-4.74,13.51c-2.37,0.24-4.62-0.03-6.88-0.44c-8.25-1.5-16.33-3.77-24.47-5.72
			c-0.78-0.19-1.56-0.36-2.33-0.54c-0.64-1.8-1.63-3.44-2.11-5.31c-1.1-4.23-1.12-8.47-0.5-12.77c0.13-0.9,0.53-1.27,1.38-1.25
			C231.48,340.11,232.95,339.76,234.42,339.41z"/>
		<path class="st14" d="M211.88,272.34c1.99-2.28,3.76-4.72,5.07-7.46c1.12-2.36,0.43-4.03-2.04-4.83c-1.27-0.41-2.59-0.71-3.97-0.7
			c-3.82,0.05-7.64,0.03-11.46,0.01c-2.81-0.02-5.52-0.57-8.12-1.61c-1.17-0.47-2.38-0.96-3.12-2.1c6.37-0.27,12.75-0.82,19.13-0.49
			c2.46,0.13,4.93,0.44,7.34,0.96c5.43,1.16,9.86-0.71,13.88-4.15c1.09-0.93,1.9-2.16,3.21-2.85c0.71,3.89-0.82,7.24-2.7,10.42
			c-1.54,2.61-3.38,5.04-5.03,7.59c-2.45,3.78-4.31,7.8-5.25,12.25c-1.34,6.38,1.72,12.08,6.01,15.75c0.49,0.42,1.1,0.62,1.75,0.73
			c6.51,1.1,13,2.27,19.52,3.27c1.49,0.23,3,0.41,4.48,0.68c2.93,0.53,4.08,2.31,3.4,4.96c-0.56,2.19-3.43,3.81-5.67,3.14
			c-3.54-1.06-7.16-1.39-10.84-1.57c-4.36-0.22-8.74-0.51-12.86-2.28c-1.04-0.45-2.14-0.9-2.88-1.67c-2.46-2.54-5.55-4.3-8.04-6.78
			c-3.4-3.4-4.41-7.51-3.96-12.25C210.07,279.59,211.38,276.05,211.88,272.34z"/>
		<path class="st14" d="M234.42,339.41c-1.47,0.35-2.94,0.7-4.47,0.68c-0.85-0.01-1.25,0.35-1.38,1.25
			c-0.62,4.29-0.59,8.54,0.5,12.77c0.49,1.87,1.48,3.52,2.11,5.31c-1.07,0.63-2.23,0.8-3.45,0.76c-1.28-0.03-2.56,0-3.83,0.01
			c-2.29,0-3.92,1.2-5.16,2.98c-0.73,1.04-0.9,2.18-0.35,3.4c0.5,1.09,0.98,2.19,1.36,3.32c0.58,1.73,0.14,2.47-1.65,3
			c-3.66,1.07-7.78-1.01-9.16-4.62c-1.19-3.1-1.21-6.21-0.17-9.36c1.17-3.55,3.7-5.17,7.36-4.39c1.51,0.32,3,0.38,4.51,0.37
			c3.04-0.03,4.62-1.62,4.43-4.64c-0.1-1.66-0.57-3.29-0.79-4.94c-0.13-0.94-0.61-1.34-1.49-1.59c-0.94-0.27-1.88-0.31-2.83-0.35
			c-2.54-0.1-5.08,0.09-7.62-0.42c-4.8-0.97-7.01-3.8-7.69-8.8c-0.78-5.74,1.96-9.63,6.89-12.22c1.62-0.85,3.29-1.56,5.18-2.06
			c0.3,1.01-0.19,1.78-0.47,2.54c-0.87,2.35-1.28,4.75-1.16,7.26c0.13,2.72,1.46,4.64,3.98,5.66c2.85,1.14,5.86,1.41,8.86,1.79
			c1.66,0.21,3.29,0.55,4.89,1.03C233.48,338.36,234.22,338.56,234.42,339.41z"/>
		<path class="st14" d="M237.21,427.84c0.04-1.14-0.95-1.31-1.64-1.78c-1.21-0.82-2.9-0.9-3.68-2.38c1.76-1.08,3.8-1.17,5.73-1.51
			c6.7-1.19,13.51-1.38,20.26-0.91c6.07,0.42,12.12,0.2,18.18,0.35c1.99,0.05,3.92-0.88,5.93-0.34c-0.04,1.2-0.68,2.28-0.68,3.5
			c0,2.08,0.69,2.87,2.79,3.05c1.93,0.16,3.79-0.37,5.66-0.69c2.66-0.46,5.28-1.09,7.93-1.62c0.46-0.09,0.95-0.05,1.42-0.07
			c-1.33,3.03-3.87,4.52-6.92,5.26c-3.42,0.83-6.96,0.71-10.43,0.87c-7.24,0.33-14.47-0.03-21.69-0.79
			c-4.82-0.51-9.6-1.21-14.39-1.88C242.88,428.52,240.13,427.5,237.21,427.84z"/>
		<path class="st13" d="M313.99,207.9c-5.59,0.24-11.18-0.17-16.77-0.29c-6.24-0.13-12.47-0.04-18.69,0.38
			c-0.87,0.06-1.74,0.21-2.6,0.41c-4.32,0.98-6.25,3.19-6.69,7.59c-0.06,0.55-0.01,1.12-0.3,1.63c-5.34-1.06-10.68-2.12-16.01-3.18
			c-0.47-0.09-0.94-0.16-1.4-0.24c0.51-1.9,1.86-2.86,3.67-3.35c1.16-0.31,2.35-0.4,3.54-0.44c1.19-0.04,2.3-0.34,3.75-0.88
			c-1.31-1.2-2.64-1.29-3.91-1.5c-1.02-0.17-2.05-0.28-3.07-0.43c-1.92-0.28-3.43-1.19-4.39-2.92c1.9,0.06,3.75,0.63,5.68,0.48
			c4.28-0.34,8.56-0.66,12.85-0.51c0.08,0,0.16,0.01,0.24-0.01c3.57-1.01,7.28-0.6,10.89-0.79c7.6-0.39,15.26-0.59,22.83,0.82
			c3.11,0.58,6.26,1.04,9.22,2.26C313.34,207.13,313.94,207.17,313.99,207.9z"/>
		<path class="st11" d="M371.12,536.8c3.75-0.59,6.4,2.45,6.26,5.87c-2.24,3.32-2.75,7.08-2.79,10.96c-0.02,2-0.01,3.99-0.05,5.99
			c-0.05,2.93-0.8,5.66-2.29,8.21c-1.27,2.17-1.05,4.09,0.71,5.89c2.2,2.25,4.88,3.31,8.04,2.6c8.21-1.86,16.51-2.83,24.94-2.54
			c13.02,0.45,25.37,3.69,37.27,8.86c11.03,4.79,21.24,11.02,31.09,17.88c1.44,1,2.89,2,4.39,2.92c1.02,0.62,2.09,1.17,3.2,1.62
			c4.02,1.62,6.33,0.59,7.88-3.47c1.29-3.39,1.54-7.01,2.18-10.53c1.23-6.75,2.59-13.47,4.1-20.17c1.83,0.98,2.51,2.78,3.12,4.56
			c1.01,2.98,0.56,5.97-0.22,8.93c-0.75,2.84-1.71,5.64-2.29,8.52c-0.55,2.72-0.73,5.52,0.17,8.25c-0.1,1.34-0.02,2.67-0.27,4.03
			c-0.52,2.75-1.54,5.33-2.23,8.02c-1,3.92-1.46,7.8,0.08,11.69c0.26,0.66,0.39,1.37,0.54,2.07c0.39,1.82-0.42,3.4-2.15,3.87
			c-1.13,0.31-2.28,0.7-3.51,0.56c-0.88-0.1-1.75-0.01-2.54,0.47c-2.37,0.24-4.65-0.76-7.02-0.49c-5.68-9.04-13.21-15.94-23.12-20.1
			c-1.05-0.44-1.94-1.11-2.84-1.76c-5.53-4.01-11.56-7.07-17.95-9.44c-9.81-3.64-20.03-5.27-30.38-6.05
			c-8.27-0.62-16.57-0.94-24.86-1.01c-5.01-0.04-8.54,2.24-10.42,6.92c-1.01,2.52-1.9,5.08-2.88,7.61
			c-1.06,2.75-2.65,5.05-5.32,6.54c-3.97,2.21-7.89,4.52-11.84,6.79c-4.36,2.5-8.72,4.99-13.08,7.49c-0.85-1.25-1.87-2.38-2.37-3.85
			c-0.69-2.04-0.18-3.83,1.63-4.95c1.08-0.67,2.28-1.14,3.45-1.64c2.63-1.12,5.29-2.17,7.82-3.54c6.24-3.37,10.84-8.29,14.09-14.53
			c3.49-6.7,4.75-13.97,5.08-21.4c0.14-3.02,0.5-6.03,0.68-9.04c0.11-1.79,0.18-3.64,0.47-5.45c0.33-2.11,0.57-4.24,0.82-6.37
			c0.38-3.31,0.72-6.63,1.11-9.94C370.22,544.04,370.68,540.42,371.12,536.8z"/>
		<path class="st15" d="M442.12,543.39c0.31-3.36-0.73-6.67-0.43-10.01c0.73-8.04,0.21-16.11,0.48-24.15
			c0.14-4.16,1.76-6.04,7.53-6.41c4.29-0.28,8.62-0.06,12.93-0.06c1.68,0,3.36,0.07,5.03,0c1.1-0.04,1.83,0.3,2.22,1.36
			c0.87,2.32,2.78,3.33,5,4.05c2.12,0.69,4.34,0.94,6.46,1.64c2.38,0.78,4.16,2.03,4.81,4.5c0.32,1.2,1.07,1.44,2.13,1.42
			c0.79-0.02,1.61-0.04,2.38,0.13c2.9,0.63,5.29,1.86,5.67,5.24c0.09,0.84,0.58,1.23,1.41,1.34c1.57,0.21,3.12,0.62,4.73,0.53
			c0.17,0.81-0.13,1.55-0.32,2.32c-0.56,2.22-1.16,4.45-1.47,6.71c-0.64,4.69-1.12,9.41-1.94,14.08c-1.14,6.5-3.55,12.32-8.32,17.01
			c-0.47,0.46-0.85,0.95-0.88,1.63c-11.18-5.01-22.36-10.01-33.53-15.03C451.38,547.62,446.75,545.49,442.12,543.39z"/>
		<path class="st12" d="M489.55,564.73c0.03-0.69,0.42-1.18,0.88-1.63c4.77-4.69,7.18-10.52,8.32-17.01
			c0.82-4.67,1.3-9.39,1.94-14.08c0.31-2.26,0.91-4.49,1.47-6.71c0.19-0.78,0.49-1.51,0.32-2.32c5.94-0.02,11.88-0.03,17.82-0.05
			c-0.14,2.6,0.87,4.98,1.64,7.35c1.42,4.36,1.96,8.76,1.71,13.3c-1.51-0.48-3-1.11-4.55-1.38c-1.31-0.23-2.6-0.79-4-0.51
			c-2.81,0.55-4.46,2.35-5.32,4.94c-1.92,5.78-2.54,11.81-2.83,17.83c-0.31,6.46-0.1,12.95-0.06,19.43c0.01,2-0.12,3.97-0.52,5.94
			c-1.13,5.52-4.47,9.17-9.56,11.35c-0.89-2.73-0.71-5.53-0.17-8.25c0.58-2.88,1.54-5.67,2.29-8.52c0.78-2.95,1.22-5.95,0.22-8.93
			c-0.6-1.78-1.28-3.58-3.12-4.56c-0.15-0.88-0.9-1.26-1.48-1.78C492.91,567.62,491.06,566.37,489.55,564.73z"/>
		<path class="st14" d="M221.77,701.05c-1.49-0.58-2.3-1.9-3.25-3.05c-1.59-1.93-3.5-3.45-5.63-4.74c-2.76-1.68-5.78-1.58-8.81-1.48
			c0.87-5.99,3.08-11.43,6.73-16.27c1.34,0.17,1.9,1.37,2.8,2.12c1.1,0.93,1.18,0.93,1.89-0.36c0.8-1.46,1.35-3.05,2.48-4.35
			c2.69-3.12,6.26-4.29,10.18-4.55c2.55-0.17,5.11-0.05,7.67-0.05c1.78,0.47,3.6,0.59,5.42,0.5c3.06-0.14,5.6,0.88,7.56,3.23
			c1.8,2.16,4.07,3.49,6.79,4.1c-0.33,1.3-1.15,2.19-2.24,2.94c-1.71,1.16-3.57,2.01-5.49,2.77c-2.31,0.91-4.46,2.05-5.81,4.27
			c-1.53,1.14-2.98,2.4-4.8,3.08c-1.49,0.56-3.01,1.05-4.51,1.57c-1.73,0.6-3.44,1.25-5.09,2.04
			C224.16,694.5,222.57,697.49,221.77,701.05z"/>
		<path class="st14" d="M178.05,710.01c0.26,1.97,0.36,3.97,0.81,5.89c0.64,2.72,0.03,5.02-1.69,7.11c-2.19,1.15-4.37,2.3-6.56,3.44
			c-0.26-0.34-0.61-0.47-1.02-0.55c-3.45-0.65-6.9-0.96-10.4-0.48c-7.51,1.02-12.44,6.29-12.17,13.74c-2.3,0.73-4.68,0.73-7.05,0.84
			c-5.96,0.28-10.63-2.03-14.09-6.86c0.31-1.46,1.05-2.82,1.04-4.36c2.18,0.13,3.98-1.06,5.89-1.78
			c8.89-3.31,17.75-6.72,26.62-10.09c5.82-2.21,11.64-4.4,17.46-6.6C177.26,710.17,177.66,710.11,178.05,710.01z"/>
		<path class="st12" d="M191.02,608.53c0.12-0.64,0.4-1.19,0.87-1.66c3.2-3.2,3.98-7.05,2.91-11.34c-0.18-0.72-0.42-1.4-0.02-2.07
			c1.76-2.94,1.17-5.93,0.36-8.99c-0.3-1.13-0.79-2.27-0.62-3.5c0.16,0.17,0.36,0.31,0.49,0.51c6.29,9.58,13.59,18.39,21.39,26.74
			c4.88,5.23,9.7,10.55,14.9,15.49c1.97,1.87,3.99,3.66,3.95,6.7c0,0.16,0.04,0.32,0.06,0.47c-3.52,0.01-7.05,0.02-10.57,0.02
			c-1.09-2.22-2.27-4.4-3.73-6.4c-3.57-4.89-8.49-7.88-14.03-10.02c-4.33-1.67-8.84-2.71-13.38-3.6
			C192.13,610.61,191.26,609.99,191.02,608.53z"/>
		<path class="st10" d="M235.8,668.31c-2.56,0.01-5.12-0.11-7.67,0.05c-3.92,0.26-7.48,1.43-10.18,4.55
			c-1.12,1.3-1.67,2.89-2.48,4.35c-0.71,1.29-0.78,1.29-1.89,0.36c-0.89-0.76-1.45-1.96-2.8-2.12c0.55-6.57,1.97-12.93,4.53-19.02
			c1.73-4.12,3.5-8.24,5.2-12.38c1.21-2.95,2.33-5.94,3.49-8.91c0.85,0.41,0.62,1.2,0.67,1.89c0.24,3.37,1.1,6.45,4.04,8.55
			c-0.58,1-1.55,1.56-2.39,2.29c-1.68,1.44-3.55,2.69-4.62,4.75c-2.26,4.34,0.76,9.47,5.63,9.49c0.95,0,1.94,0.07,2.86-0.13
			c3.62-0.78,7.27,0.37,10.88-0.3c-0.09,0.98-0.9,1.45-1.49,2.06C238.21,665.21,236.74,666.53,235.8,668.31z"/>
		<path class="st4" d="M228.73,645.64c-2.93-2.1-3.79-5.18-4.04-8.56c-0.05-0.69,0.17-1.48-0.67-1.89c0.44-1.39-0.2-2.97,0.71-4.28
			c3.52-0.01,7.05-0.01,10.57-0.02c0.5,0.26,1,0.51,1.58,0.48c0.86-0.04,1.3,0.37,1.48,1.19c0.94,4.09,2.28,8.09,2.81,12.28
			c-1.18,0.19-2.36,0.39-3.55,0.58C234.66,645.38,231.69,645.14,228.73,645.64z"/>
		<path class="st2" d="M237.21,427.84c2.91-0.35,5.67,0.67,8.49,1.07c4.79,0.67,9.57,1.37,14.39,1.88
			c7.22,0.76,14.45,1.12,21.69,0.79c3.47-0.16,7.01-0.04,10.43-0.87c3.05-0.74,5.58-2.23,6.92-5.26
			c5.94-4.42,11.87-8.85,17.82-13.27c0.76-0.57,1.57-1.08,2.35-1.61c0.79-0.03,1.57-0.04,2.37-0.21c4.84-1.07,9.05-3.41,13-6.3
			c4.94-3.62,9.78-7.39,15.44-9.87c0.27,0.04,0.54,0.08,0.81,0.11c1.95,9.7-0.44,18.14-7.26,25.35c-3.36,3.55-7.07,6.68-10.94,9.64
			c-0.82,0.63-1.6,1.3-2.4,1.96c-0.86,0.42-1.73,0.82-2.58,1.25c-4.11,2.11-8.12,4.43-12.34,6.28c-5.69,2.49-11.56,4.58-17.33,6.92
			c-4.51,1.83-9.05,3.59-13.36,5.87c-3.81,2.02-5.88,5.01-5.39,9.51c0.26,2.38,0.46,4.77,0.48,7.16c0.04,5.28-0.56,10.51-1.55,15.68
			c-1.73,9.04-4.75,17.7-7.87,26.33c-1.84,5.1-3.88,10.13-5.42,15.33c-2.13,0.19-4.26,0.38-6.4,0.56
			c-1.42-6.35-2.81-12.7-4.27-19.04c-0.89-3.86-1.55-7.77-2.72-11.57c0.02-2,0.01-4,0.06-5.99c0.19-7.43,0.65-14.85,0.45-22.28
			c-0.11-4-0.6-7.96-1.5-11.85c-2-8.69-6.36-15.97-13.33-21.6c-1.01-0.82-1.61-1.72-1.48-3.06c0.08-0.79,0.03-1.6,0.04-2.4
			C236.29,428.18,236.75,428.01,237.21,427.84z"/>
		<path class="st2" d="M313.99,207.9c-0.05-0.73-0.65-0.77-1.17-0.98c-2.96-1.22-6.11-1.67-9.22-2.26
			c-7.56-1.41-15.23-1.21-22.83-0.82c-3.61,0.19-7.32-0.22-10.89,0.79c-0.07,0.02-0.16,0.01-0.24,0.01
			c-4.3-0.16-8.58,0.17-12.85,0.51c-1.93,0.15-3.78-0.42-5.68-0.48c-8.52-5.34-18.01-7.54-27.85-8.72
			c-7.21-0.87-14.46-1.39-21.59-2.81c-2.58-0.52-5.17-0.98-7.62-2c3.74-1.94,6.49-4.66,7.18-9.03c1.73-0.23,3.45-0.51,5.19-0.69
			c4.44-0.46,8.88-0.48,13.33,0.03c2.95,0.33,5.7,1.4,8.59,1.94c4.8,0.9,8.43-1.41,9.41-6.1c3.43,0.24,6.82-0.46,10.23-0.44
			c10.97,0.08,21.95-0.46,32.91,0.84c4.01,0.48,8.03,0.94,11.99,1.67c6.8,1.26,13.4,3.32,19.83,5.9c1.11,0.44,2.26,0.77,3.19,1.56
			c-1.11,0.03-2.23,0.1-3.34,0.07c-0.98-0.03-1.91,0.18-2.79,0.53c-2.56,1.05-3.12,3.49-1.31,5.56c0.63,0.72,1.54,0.82,2.35,1.07
			c7.67,2.37,15.34,4.74,23.03,7.04c3.04,0.91,6.13,1.68,9.21,2.44c2.2,0.55,3.11,0.02,3.77-2.11c0.4-1.29,0.81-2.58,0.76-3.96
			c6.59-0.01,13.17-0.03,19.76-0.04c3.47,1.05,6.93,2.09,10.4,3.14c2.02,1.24,4.09,2.4,5.92,3.93c3.65,3.05,5.73,6.89,5.93,11.69
			c-0.11,1.75-0.26,3.49-0.7,5.19c-0.94,3.64-0.95,7.4-1.4,11.1c-0.19,1.59-0.31,3.36-1.95,4.1c-1.73,0.78-2.97-0.64-4.21-1.58
			c-1.33-1-2.59-2.09-3.88-3.15c-2.98-5.23-7.51-8.61-12.95-10.91c-4.36-1.85-8.98-2.81-13.54-3.98
			c-10.67-2.76-21.28-5.7-32.01-8.22C317.3,208.33,315.67,208.01,313.99,207.9z"/>
		<path class="st13" d="M350.1,394.18c-5.66,2.49-10.51,6.25-15.44,9.87c-3.95,2.89-8.16,5.23-13,6.3c-0.8,0.18-1.57,0.18-2.37,0.21
			c4.77-4.61,9.5-9.25,14.31-13.81c3.66-3.46,7.42-6.81,11.47-9.82c1.03-0.76,2.1-1.47,3.32-1.9c1.51-0.54,2.3-0.06,2.46,1.53
			c0.18,1.78-0.4,3.48-0.56,5.23C350.22,392.6,349.98,393.37,350.1,394.18z"/>
		<path class="st6" d="M170.61,726.45c2.19-1.15,4.37-2.3,6.56-3.44c1.72,0.31,3.23,1.21,4.86,1.75c0.68,0.22,1.29,0.61,1.55,1.35
			c-3.83,3.99-7.65,7.99-11.47,11.98c-0.65,0.68-1.44,1.26-1.72,2.22c-2.14,0.14-3.63,1.62-5.15,2.8
			c-4.33,3.39-7.97,7.53-11.58,11.63c-2.65,3.02-5.52,5.72-8.79,7.96c-4.2,2.88-8.8,4.76-14.05,4.52c-0.47-0.02-0.95,0.09-1.43,0.14
			c-0.28-0.27-0.6-0.51-0.83-0.82c-1.51-2.05-3.54-3.23-6.02-3.68c-0.4-1.25-1.58-1.69-2.48-2.41c-3.46-2.75-5.39-6.36-6.19-10.67
			c-0.41-2.21-0.47-4.34-0.06-6.59c0.77-4.27,3.2-7.02,7.05-8.6c1.6-0.66,3.22-1.38,5.01-1.46c3.46,4.83,8.13,7.14,14.09,6.86
			c2.38-0.11,4.76-0.11,7.05-0.84c4.25-0.61,8.42-1.58,12.4-3.21C164.17,734.01,168.11,731.06,170.61,726.45z"/>
		<path class="st2" d="M73.11,733.58c-3.61,4.62-8.4,7.18-14.12,8.2c-4.47,0.79-8.91,0.32-13.34-0.19
			c-3.64-0.42-7.26-1.03-10.92-1.3c-1.49-0.11-1.68-0.31-1.33-1.75c1.03-4.25,2.96-8.06,5.72-11.46c2.53-3.11,5.47-5.79,8.52-8.36
			c1.34,0.27,2.64-0.29,3.99-0.19c4.19,0.3,7.47,2.36,10.38,5.19c1.36,1.33,2.59,2.78,3.82,4.23
			C67.85,730.32,70.46,731.99,73.11,733.58z"/>
		<path class="st13" d="M73.11,733.58c-2.65-1.59-5.26-3.26-7.27-5.63c-1.23-1.45-2.45-2.9-3.82-4.23
			c-2.91-2.83-6.19-4.89-10.38-5.19c-1.35-0.1-2.65,0.46-3.99,0.19c3.97-6.05,9.42-9.63,16.74-10.11
			c5.24-0.35,10.34,0.64,15.44,1.61c2.43,0.46,4.86,0.91,7.3,1.35c1.63,0.29,1.8,0.49,1.17,2c-1.98,4.76-4.6,9.14-7.98,13.03
			C78.13,729.13,75.81,731.56,73.11,733.58z"/>
		<path class="st13" d="M315.91,186.82c-0.93-0.79-2.08-1.11-3.19-1.56c-6.43-2.58-13.03-4.65-19.83-5.9
			c-3.95-0.73-7.98-1.19-11.99-1.67c-10.96-1.3-21.94-0.76-32.91-0.84c-3.41-0.03-6.8,0.68-10.23,0.44
			c-1.29,0.11-2.51-0.43-3.78-0.45c-4.45-0.07-8.84-0.86-13.28-1.13c-2.12-0.13-4.27-0.21-6.4-0.53c-3.8-0.57-7.62-0.35-11.44-0.27
			c-1.6,0.04-2.51,1.2-2.63,2.83c-0.11,1.56,0.32,2.99,1,4.36c-0.69,4.37-3.44,7.09-7.18,9.03c-3.48-0.16-6.95-0.33-10.43-0.49
			c-0.15-3.62,0.24-7.18,1.25-10.66c2.01-7,6.8-10.78,13.87-11.83c4.98-0.74,10.01-1,15.03-1.33c12.77-0.86,25.56-1.02,38.34-0.49
			c38.74,1.58,75.7,10.23,110.24,28.26c1.69,0.88,3.44,1.67,4.98,2.83c-6.59,0.01-13.17,0.03-19.76,0.04
			c-6.44-2.55-13.06-4.58-19.63-6.77C323.94,189.36,320.02,187.79,315.91,186.82z"/>
		<path class="st2" d="M242.04,686.13c1.35-2.22,3.5-3.36,5.81-4.27c1.92-0.76,3.77-1.6,5.49-2.77c1.09-0.74,1.91-1.64,2.24-2.94
			c3.32-2.3,6.64-4.59,9.96-6.89c5.57-2.43,10.99-5.17,16.35-8.02c12-6.38,23.59-13.47,35.01-20.84c3.28-2.12,6.65-4.13,9.71-6.57
			c3.61-1.55,6.99-3.56,10.4-5.47c4.36-2.5,8.72-4.99,13.08-7.49c3.95-2.26,7.86-4.58,11.84-6.79c2.67-1.49,4.25-3.79,5.32-6.54
			c0.98-2.53,1.87-5.09,2.88-7.61c1.88-4.68,5.41-6.97,10.42-6.92c8.3,0.07,16.6,0.38,24.86,1.01c10.35,0.78,20.57,2.41,30.38,6.05
			c6.4,2.37,12.42,5.42,17.95,9.44c0.9,0.65,1.79,1.32,2.84,1.76c9.91,4.16,17.44,11.06,23.12,20.1c-0.21,0.6-0.4,1.21-0.62,1.81
			c-2,5.47-4.06,10.92-5.52,16.58c-1.36,5.26-2.95,10.46-5.09,15.46c-2.72,6.34-6.37,11.99-11.93,16.24c-2.61,2-5.49,3.58-8.36,5.16
			c-10.76,5.9-22.07,10.5-33.71,14.3c-19.96,6.53-40.22,12.05-60.44,17.73c-20.84,5.85-41.63,11.82-62.09,18.88
			c-4.21,1.45-8.5,2.74-12.53,4.69c-4.7,0.28-9.4,0.58-14.1,0.84c-1.03,0.06-2.07,0.01-3.1,0.02c-1.07-6.47-3.59-12.37-7.03-17.9
			c-3.73-6-8.39-11.22-13.73-15.84c0.71-3.23,0.55-6.5,0.56-9.77C242.03,695.08,242.03,690.6,242.04,686.13z"/>
		<path class="st2" d="M170.39,740.31c0.28-0.97,1.07-1.54,1.72-2.22c3.82-4,7.65-7.99,11.47-11.98c4.95-2.74,10.29-4.23,15.86-5.01
			c4.84-0.68,9.57-0.28,14.12,1.51c7.13,2.81,11.34,8.25,13.69,15.37c0.36,1.08-0.19,1.44-0.87,1.89c-2.32,1.55-4.66,3.09-6.96,4.67
			c-0.99,0.68-1.99,1.36-2.87,2.16c-4.88,4.47-10.83,6.36-17.23,6.93c-6.68,0.6-13.22-0.17-19.48-2.77
			c-2.68-1.11-5.1-2.62-7.27-4.55c-1.39-1.24-2.3-2.63-2.04-4.59C170.58,741.27,170.44,740.78,170.39,740.31z"/>
		<path class="st13" d="M242.04,686.13c-0.01,4.48-0.01,8.96-0.02,13.43c-0.01,3.27,0.15,6.54-0.56,9.77
			c-2.55-0.93-4.83-2.43-7.28-3.58c-3.47-1.63-7-3.05-10.81-3.68c-0.66-0.11-1.52,0.03-1.61-1.02c0.8-3.57,2.4-6.56,5.87-8.23
			c1.65-0.8,3.36-1.44,5.09-2.04c1.5-0.52,3.02-1.01,4.51-1.57C239.05,688.53,240.51,687.27,242.04,686.13z"/>
		<path class="st15" d="M496.82,601.15c5.09-2.18,8.44-5.83,9.56-11.35c0.4-1.96,0.53-3.93,0.52-5.94
			c-0.04-6.48-0.25-12.97,0.06-19.43c0.29-6.01,0.91-12.05,2.83-17.83c0.86-2.59,2.5-4.39,5.32-4.94c1.41-0.27,2.69,0.29,4,0.51
			c1.55,0.27,3.04,0.9,4.55,1.38c0.41,2.63,1.78,4.93,2.61,7.42c1.65,4.91,3.54,9.74,5.31,14.61c3.7,10.2,7.07,20.51,10.39,30.84
			c3.07,9.55,5.95,19.16,8.73,28.81c4.05,14.07,7.89,28.2,11.55,42.38c2.73,10.55,5.6,21.07,8.61,31.55
			c1.14,3.98,2.21,7.98,3.45,11.93c0.14,0.45,0.17,0.93,0.26,1.4c0.24,6.54-1.05,12.84-3.39,18.9c-3.05,7.91-7.93,14.46-14.83,19.52
			c-6.86,5.03-14.68,7.53-22.89,9.04c-4.17,0.77-8.42,0.7-12.63,0.49c-2.76-0.14-5.49-0.79-8.23-1.16
			c-4.19-0.56-8.27-0.4-11.91,2.16c-1.93,1.36-3.43,3.08-4.38,5.27c-31.15,0.01-62.29-0.06-93.44,0.12
			c-5.88,0.03-11.79,0.22-17.68,0.44c-5.35,0.2-10.05-1.39-14.33-4.4c-2.73-1.92-5.3-4.07-8.01-6.02c-1.6-1.16-3.1-2.53-5.07-3.08
			c-4.59-2.37-9.49-3.89-14.44-5.28c-3.2-0.9-6.52-1.14-9.76-1.77c1.44-3.07,3.48-5.73,5.91-8.05c2.36-2.25,4.96-4.26,7.83-5.82
			c3.71-2.02,7.49-3.87,11.74-4.6c3.52-0.6,7.09-0.78,10.62-1.25c6.8-0.92,13.42-2.57,19.94-4.6c6.69-2.08,13.25-4.56,19.7-7.32
			c6.66-2.85,13.29-5.78,19.96-8.62c5.57-2.37,11.11-4.83,16.93-6.56c2.52-0.74,5.07-1.34,7.55-2.22c2.8-1,5.13-2.67,6.84-5.03
			c3.28-4.5,6.41-9.11,9.58-13.7c2.58-3.74,4.99-7.58,7.25-11.53c3.17-5.57,5.75-11.37,7.42-17.57c1.59-5.9,2.03-11.9,1.88-17.97
			c0.79-0.48,1.66-0.57,2.54-0.47c1.23,0.13,2.38-0.25,3.51-0.56c1.73-0.47,2.54-2.05,2.15-3.87c-0.15-0.7-0.28-1.41-0.54-2.07
			c-1.55-3.89-1.09-7.77-0.08-11.69c0.69-2.69,1.71-5.28,2.23-8.02C496.8,603.82,496.72,602.49,496.82,601.15z"/>
		<path class="st12" d="M486.74,631.85c0.15,6.07-0.29,12.08-1.88,17.97c-1.67,6.2-4.25,12-7.42,17.57
			c-2.25,3.95-4.66,7.8-7.25,11.53c-3.17,4.58-6.3,9.19-9.58,13.7c-1.72,2.36-4.05,4.03-6.84,5.03c-2.48,0.88-5.04,1.48-7.55,2.22
			c-5.82,1.72-11.36,4.18-16.93,6.56c-6.67,2.84-13.3,5.77-19.96,8.62c-6.46,2.76-13.01,5.24-19.7,7.32
			c-6.52,2.03-13.14,3.68-19.94,4.6c-3.54,0.48-7.1,0.65-10.62,1.25c-4.25,0.73-8.03,2.58-11.74,4.6c-2.88,1.56-5.47,3.58-7.83,5.82
			c-2.43,2.31-4.47,4.97-5.91,8.05c-4.96-0.02-9.93-0.31-14.87,0.03c-4.64,0.32-9.27,0.4-13.89,0.25
			c-7.9-0.25-15.77-0.91-23.26-3.77c-0.73-0.28-1.57-0.34-2.14-0.99c4.03-1.95,8.32-3.23,12.53-4.69
			c20.47-7.06,41.26-13.03,62.09-18.88c20.21-5.67,40.48-11.2,60.44-17.73c11.64-3.81,22.96-8.4,33.71-14.3
			c2.87-1.57,5.74-3.16,8.36-5.16c5.56-4.25,9.22-9.9,11.93-16.24c2.15-5.01,3.74-10.21,5.09-15.46c1.46-5.66,3.53-11.11,5.52-16.58
			c0.22-0.6,0.41-1.21,0.62-1.81C482.09,631.09,484.37,632.09,486.74,631.85z"/>
		<path class="st0" d="M162.9,513.48c0.89,0.32,0.5,1.1,0.62,1.7C162.7,514.84,162.89,514.13,162.9,513.48z"/>
		<path class="st15" d="M241.18,644.84c-0.54-4.18-1.87-8.18-2.81-12.28c-0.19-0.82-0.62-1.23-1.48-1.19
			c-0.57,0.03-1.08-0.22-1.58-0.48c-0.02-0.16-0.07-0.32-0.06-0.47c0.04-3.04-1.98-4.83-3.95-6.7c-5.19-4.94-10.01-10.26-14.9-15.49
			c-7.8-8.35-15.09-17.16-21.39-26.74c-0.13-0.19-0.32-0.34-0.49-0.51c-3.35-10.56-6.39-21.23-10.19-31.64
			c-3.2-8.78-6.91-17.36-12.39-25.02c-0.68-0.95-0.96-1.93-0.96-3.11c0.04-10.8,0.02-21.6,0.02-32.4c0.56-0.01,1.14,0.06,1.67-0.05
			c6.59-1.35,11.92-4.75,16.07-10.02c1.98-2.51,3.62-5.24,5.01-8.12c0.55-1.14,1.21-1.97,2.68-1.99c7.81-0.12,15.64,0.42,23.44-0.47
			c1.58-0.18,2.51,0.54,3.21,1.91c0.91,1.79,1.5,3.69,2.14,5.58c0.69,2.02,2.07,3.29,4.07,4.07c2.23,0.87,4.31,0.17,6.25-0.59
			c2.52-0.98,5.29,0.28,6.48,2.56c0.85,1.62,1.64,3.29,2.37,4.97c1.02,2.33,1.78,4.81,3.02,7.02c0.86,1.55,0.93,2.97,0.66,4.57
			c-0.28,1.64-0.72,3.29-0.74,4.93c-0.04,2.76-0.41,5.48-0.13,8.28c0.54,5.34,1.92,10.3,4.86,14.8c-0.51,4.97-1.52,9.87-2.09,14.84
			c-0.37,3.25-0.17,6.33,0.55,9.43c0.71,3.07,0.74,6.11,0.28,9.23c-0.42,2.84-0.32,5.75-0.04,8.6c0.12,1.3,0.62,2.63,1.36,3.79
			c2.23,3.48,5.63,4.72,9.52,5.02c0.01,1.84,0.36,3.75-0.05,5.49c-0.72,3.06,0.01,6.04,0.22,8.99c0.39,5.22,1.86,10.3,3.32,15.33
			c1.62,5.57,3.35,11.11,4.92,16.7c1.05,3.74,2.15,7.53,2.11,11.43c-0.03,2.96,0.76,5.46,2.46,7.78c0.66,0.89,1.26,1.82,1.55,2.94
			c0.42,1.61,0.26,2.3-1.04,3.28c-2.1,1.58-4.45,2.36-7.09,2.44c-3.45,0.1-6.8-0.4-10.15-1.17c-2.7-0.63-5.41-1.34-8.21-1.23
			c-1.69,0.07-3.08-0.54-4.48-1.37C243.77,646.92,242.77,645.48,241.18,644.84z"/>
		<path class="st12" d="M252.07,526.26c-2.94-4.5-4.31-9.46-4.86-14.8c-0.29-2.81,0.09-5.53,0.13-8.28
			c0.02-1.65,0.46-3.29,0.74-4.93c0.27-1.6,0.21-3.02-0.66-4.57c-1.24-2.21-1.99-4.68-3.02-7.02c-0.74-1.68-1.52-3.34-2.37-4.97
			c-1.2-2.27-3.96-3.54-6.48-2.56c-1.94,0.75-4.02,1.46-6.25,0.59c-2-0.78-3.38-2.05-4.07-4.07c-0.65-1.88-1.23-3.78-2.14-5.58
			c-0.7-1.38-1.63-2.09-3.21-1.91c-7.8,0.89-15.62,0.35-23.44,0.47c-1.46,0.02-2.13,0.85-2.68,1.99c-1.39,2.88-3.03,5.61-5.01,8.12
			c-4.15,5.27-9.48,8.67-16.07,10.02c-0.54,0.11-1.12,0.04-1.67,0.05c-0.72-0.63-0.44-1.48-0.45-2.24
			c-0.03-2.38-0.02-4.76-0.02-7.14c0.01-2.61,0.09-5.22-0.47-7.8c1.3-2.18,3.31-2.95,5.74-2.92c0.62,0.01,1.25-0.05,1.87-0.08
			c3.68,0.01,7.35,0,11.03,0.02c1.68,0.01,3.28-0.7,4.97-0.52c0.44,0.05,0.69-0.32,0.94-0.64c2.67-3.5,6.4-5.44,10.41-6.91
			c3.23-1.19,6.38-2.5,9.17-4.57c0.58-0.43,1.23-0.82,1.98-0.77c2.88,0.2,5.71-0.39,8.57-0.51c0.2,0.13,0.44,0.22,0.6,0.39
			c3.73,3.71,7.7,7.17,11.64,10.66c1.46,1.29,2.02,1.28,3.43-0.06c1.41-1.33,1.57-3.07,1.6-4.83c0.03-1.95,0.47-3.77,1.37-5.51
			c0.43-0.82,1.03-1.4,1.87-1.77c0.77-0.34,1.32-0.41,1.59,0.65c0.96,3.86,1.88,7.73,1.9,11.74c0.03,9.12,0,18.24,0.01,27.36
			c0,2.1,0.03,2.1,2.11,2.18c0.24,0.01,0.48,0,0.72,0c1.17,3.79,1.83,7.71,2.72,11.57c1.46,6.34,2.85,12.69,4.27,19.04
			C256.4,526.18,254.23,526.22,252.07,526.26z"/>
		<path class="st15" d="M337.02,628.37c-3.42,1.92-6.79,3.93-10.4,5.47c-0.64-0.33-1.28-0.65-1.92-0.98
			c-4.09-2.11-8.22-2.11-12.45-0.4c-3.81,1.54-6.99,4.09-10.29,6.43c-3.01,2.13-6.07,4.1-9.77,4.8c-2.29,0.43-4.47,0.07-6.44-1.09
			c-3.18-1.87-4.68-4.95-5.25-8.42c-0.25-1.54-0.43-3.14-0.54-4.72c-0.26-3.97-0.95-7.87-1.8-11.74c-2.07-9.47-5.11-18.7-7.13-28.19
			c-1.16-5.44-2.17-10.9-2.14-16.49c0.01-1.52-0.01-3.04-0.02-4.55c-0.12-1.74,1.32-2.49,2.32-3.41c3.52-3.25,4.91-7.3,4.92-11.98
			c0.01-3.06-0.78-5.97-1.47-8.9c-0.69-2.93-2.05-5.71-1.95-8.81c-0.22-2.17,0.23-4.31,0.6-6.4c1.38-7.71,3.73-15.15,7.06-22.24
			c2.58-5.49,5.3-10.91,8.48-16.09c2.67-4.33,5.96-8.11,10.22-10.9c5.3-3.47,11.2-5.72,17.17-7.76c6.78-2.32,13.63-4.44,20.05-7.73
			c6.24-3.2,11.47-7.46,15.16-13.47c1.03-1.68,2.29-2.6,4.3-2.31c0.47,0.07,0.96,0,1.44,0c0.93,1.18,1.65,2.5,2.77,3.56
			c1.51,1.45,3.3,2.24,5.27,2.63c2.34,0.47,4.73,0.64,7.13,0.54c2.72-0.12,5.38,0.34,8.03,0.9c3.89,0.83,7.19,2.68,9.63,5.81
			c2.37,3.04,2.93,6.62,2.5,10.39c-0.4,3.52-1.81,6.75-2.89,10.08c-0.94,2.89-1.45,5.84-1.76,8.86c-0.31,2.98-0.66,5.89-2.49,8.55
			c-3.21,4.65-6.11,9.51-9.06,14.34c-2.51,4.11-4.39,8.56-5.07,13.32c-0.44,3.05-0.1,6.22-0.11,9.34c-0.44,3.62-0.9,7.24-1.32,10.86
			c-0.39,3.31-0.72,6.63-1.11,9.94c-0.25,2.13-0.49,4.25-0.82,6.37c-0.28,1.81-0.36,3.66-0.47,5.45c-0.18,3.02-0.55,6.02-0.68,9.04
			c-0.33,7.43-1.59,14.7-5.08,21.4c-3.25,6.24-7.85,11.16-14.09,14.53c-2.53,1.37-5.19,2.42-7.82,3.54
			c-1.17,0.5-2.37,0.98-3.45,1.64c-1.82,1.12-2.32,2.91-1.63,4.95C335.15,625.99,336.17,627.12,337.02,628.37z"/>
		<path class="st12" d="M357.18,448.48c-0.48,0-0.97,0.06-1.44,0c-2.01-0.28-3.27,0.64-4.3,2.31c-3.69,6.01-8.92,10.27-15.16,13.47
			c-6.42,3.29-13.27,5.41-20.05,7.73c-5.97,2.04-11.87,4.29-17.17,7.76c-4.26,2.79-7.55,6.56-10.22,10.9
			c-3.18,5.18-5.9,10.6-8.48,16.09c-3.33,7.09-5.68,14.53-7.06,22.24c-0.37,2.09-0.82,4.23-0.6,6.4c-0.8-0.02-1.29-0.53-1.7-1.13
			c-2.02-2.89-4.03-5.78-6.04-8.68c1.54-5.21,3.58-10.23,5.42-15.33c3.12-8.63,6.14-17.29,7.87-26.33
			c0.99-5.18,1.59-10.41,1.55-15.68c-0.02-2.39-0.22-4.78-0.48-7.16c-0.49-4.5,1.58-7.49,5.39-9.51c4.31-2.29,8.85-4.04,13.36-5.87
			c5.76-2.34,11.63-4.43,17.33-6.92c4.22-1.85,8.23-4.17,12.34-6.28c0.85-0.44,1.72-0.84,2.58-1.25c0.24,1.36,0.96,2.53,1.66,3.67
			c1.07,1.72,2.98,2.22,4.97,1.69c2.42-0.64,3.99-2.54,5.93-3.86c4.84-3.29,8.46-7.81,12.06-12.34c0.72-0.91,1.37-2,2.72-2.15
			c2.05,3.15,1.71,6.51,0.6,9.79c-1.48,4.37-1.93,8.84-1.48,13.35C357.02,443.76,357.16,446.11,357.18,448.48z"/>
		<path class="st11" d="M251.57,495.53c-0.24,0-0.48,0.01-0.72,0c-2.07-0.08-2.1-0.08-2.11-2.18c-0.01-9.12,0.02-18.24-0.01-27.36
			c-0.01-4-0.94-7.87-1.9-11.74c-0.26-1.06-0.81-0.99-1.59-0.65c-0.84,0.37-1.45,0.95-1.87,1.77c-0.89,1.73-1.34,3.55-1.37,5.51
			c-0.02,1.76-0.19,3.5-1.6,4.83c-1.41,1.34-1.97,1.35-3.43,0.06c-3.94-3.49-7.9-6.94-11.64-10.66c-0.17-0.16-0.4-0.26-0.6-0.39
			c0-5.36,0.01-10.71,0.01-16.07c0-1.75,0.05-3.48,0.44-5.22c0.61-2.72,3.03-4.99,5.84-5.09c1.6-0.06,3.2,0,4.79,0
			c-0.01,0.8,0.04,1.6-0.04,2.4c-0.14,1.35,0.46,2.24,1.48,3.06c6.96,5.64,11.32,12.91,13.33,21.6c0.9,3.89,1.39,7.85,1.5,11.85
			c0.2,7.44-0.26,14.86-0.45,22.28C251.58,491.53,251.59,493.53,251.57,495.53z"/>
		<path class="st11" d="M265.53,669.26c-3.32,2.3-6.64,4.59-9.96,6.89c-2.72-0.61-4.99-1.95-6.79-4.1c-1.96-2.35-4.5-3.38-7.56-3.23
			c-1.82,0.09-3.64-0.03-5.42-0.5c0.93-1.78,2.41-3.11,3.78-4.52c0.59-0.61,1.4-1.08,1.49-2.06c1.25-0.83,1.12-2.34,1.7-3.49
			c4.25-0.1,8.01,1.35,11.64,3.46c2.95,1.71,5.63,3.8,8.44,5.69C263.76,667.99,264.99,668.15,265.53,669.26z"/>
		<path class="st13" d="M170.61,726.45c-2.5,4.61-6.44,7.56-11.19,9.5c-3.98,1.63-8.14,2.6-12.4,3.21
			c-0.28-7.45,4.66-12.72,12.17-13.74c3.5-0.48,6.96-0.17,10.4,0.48C170,725.98,170.36,726.12,170.61,726.45z"/>
		<path class="st13" d="M242.78,658.24c-0.58,1.16-0.44,2.66-1.7,3.49c-3.61,0.67-7.26-0.48-10.88,0.3c-0.92,0.2-1.9,0.13-2.86,0.13
			c-4.87-0.01-7.89-5.15-5.63-9.49c1.07-2.06,2.94-3.3,4.62-4.75c0.84-0.72,1.82-1.29,2.39-2.29c2.95-0.5,5.93-0.27,8.9-0.22
			C239.35,649.69,241.06,653.97,242.78,658.24z"/>
		<path class="st12" d="M242.78,658.24c-1.72-4.27-3.43-8.55-5.15-12.82c1.18-0.19,2.36-0.39,3.55-0.58
			c1.59,0.64,2.6,2.08,4.04,2.94c1.4,0.83,2.78,1.44,4.48,1.37c2.8-0.11,5.51,0.6,8.21,1.23c3.35,0.78,6.7,1.27,10.15,1.17
			c2.64-0.08,4.99-0.85,7.09-2.44c1.3-0.98,1.45-1.67,1.04-3.28c-0.29-1.12-0.89-2.05-1.55-2.94c-1.7-2.32-2.49-4.82-2.46-7.78
			c0.04-3.9-1.06-7.69-2.11-11.43c-1.57-5.59-3.3-11.12-4.92-16.7c-1.46-5.03-2.93-10.11-3.32-15.33c-0.22-2.95-0.94-5.93-0.22-8.99
			c0.41-1.74,0.06-3.65,0.05-5.49c1.06-0.09,1.34-1.05,1.81-1.72c1.32-1.87,2.59-3.79,3.82-5.72c0.4-0.62,0.74-1.23,1.59-1.24
			c0.01,1.52,0.02,3.04,0.02,4.55c-0.02,5.59,0.99,11.06,2.14,16.49c2.02,9.48,5.06,18.71,7.13,28.19c0.85,3.88,1.54,7.77,1.8,11.74
			c0.1,1.58,0.28,3.18,0.54,4.72c0.57,3.46,2.07,6.55,5.25,8.42c1.97,1.16,4.16,1.52,6.44,1.09c3.7-0.7,6.76-2.67,9.77-4.8
			c3.3-2.33,6.48-4.89,10.29-6.43c4.22-1.71,8.36-1.71,12.45,0.4c0.64,0.33,1.28,0.65,1.92,0.98c-3.07,2.44-6.43,4.45-9.71,6.57
			c-11.42,7.36-23.01,14.45-35.01,20.84c-5.36,2.85-10.78,5.58-16.35,8.02c-0.54-1.11-1.77-1.27-2.67-1.88
			c-2.82-1.89-5.49-3.98-8.44-5.69C250.79,659.59,247.03,658.14,242.78,658.24z"/>
		<path class="st11" d="M268.87,568.48c-0.85,0.01-1.19,0.61-1.59,1.24c-1.24,1.93-2.5,3.85-3.82,5.72
			c-0.48,0.67-0.75,1.64-1.81,1.72c-3.9-0.3-7.3-1.53-9.52-5.02c-0.75-1.17-1.24-2.5-1.36-3.79c-0.27-2.85-0.38-5.76,0.04-8.6
			c0.46-3.12,0.43-6.16-0.28-9.23c-0.72-3.1-0.92-6.18-0.55-9.43c0.57-4.97,1.58-9.87,2.09-14.84c2.16-0.04,4.33-0.08,6.49-0.12
			c2.13-0.19,4.27-0.38,6.4-0.56c2.01,2.89,4.02,5.79,6.04,8.68c0.41,0.59,0.9,1.1,1.7,1.13c-0.1,3.1,1.26,5.88,1.95,8.81
			c0.69,2.93,1.48,5.84,1.47,8.9c-0.01,4.68-1.4,8.73-4.92,11.98C270.19,565.99,268.75,566.74,268.87,568.48z M267.92,552.17
			c-0.61-1.91-1.26-4.24-2.64-6.19c-1.58-2.24-4.45-1.98-5.94,0.4c-1.11,1.78-1.81,3.74-2.32,5.76c-0.42,1.63,0.56,3.59,2.08,4.18
			c2.34,0.91,4.7,0.81,6.94-0.36C267.36,555.26,267.93,554.05,267.92,552.17z"/>
		<path class="st14" d="M315.91,186.82c4.11,0.97,8.04,2.54,12.03,3.87c6.57,2.19,13.19,4.22,19.63,6.77
			c0.05,1.38-0.36,2.68-0.76,3.96c-0.66,2.14-1.57,2.66-3.77,2.11c-3.08-0.76-6.17-1.53-9.21-2.44c-7.69-2.3-15.36-4.67-23.03-7.04
			c-0.81-0.25-1.72-0.35-2.35-1.07c-1.8-2.06-1.25-4.51,1.31-5.56c0.88-0.36,1.81-0.57,2.79-0.53
			C313.68,186.93,314.79,186.85,315.91,186.82z"/>
		<path class="st14" d="M201.24,182.1c-0.68-1.37-1.11-2.8-1-4.36c0.12-1.63,1.03-2.79,2.63-2.83c3.81-0.09,7.64-0.3,11.44,0.27
			c2.12,0.32,4.28,0.4,6.4,0.53c4.44,0.27,8.83,1.06,13.28,1.13c1.27,0.02,2.48,0.56,3.78,0.45c-0.99,4.69-4.61,7-9.41,6.1
			c-2.89-0.54-5.64-1.61-8.59-1.94c-4.45-0.51-8.89-0.48-13.33-0.03C204.69,181.6,202.97,181.87,201.24,182.1z"/>
		<path class="st14" d="M267.92,552.17c0.01,1.88-0.56,3.1-1.87,3.78c-2.24,1.17-4.6,1.27-6.94,0.36c-1.52-0.59-2.5-2.55-2.08-4.18
			c0.51-2.01,1.21-3.98,2.32-5.76c1.49-2.38,4.35-2.64,5.94-0.4C266.66,547.92,267.31,550.26,267.92,552.17z"/>
	</g>
</g>
</svg>
